<?xml version="1.0" encoding="utf-8" standalone="no"?>
<!DOCTYPE svg PUBLIC "-//W3C//DTD SVG 1.1//EN"
  "http://www.w3.org/Graphics/SVG/1.1/DTD/svg11.dtd">
<svg height="216pt" version="1.1" viewBox="0 0 460.8 216" width="460.8pt" xmlns="http://www.w3.org/2000/svg" xmlns:xlink="http://www.w3.org/1999/xlink">
 <metadata>
  <rdf:RDF xmlns:cc="http://creativecommons.org/ns#" xmlns:dc="http://purl.org/dc/elements/1.1/" xmlns:rdf="http://www.w3.org/1999/02/22-rdf-syntax-ns#">
   <cc:Work>
    <dc:type rdf:resource="http://purl.org/dc/dcmitype/StillImage"/>
    <dc:date>2021-06-15T12:00:12.481495</dc:date>
    <dc:format>image/svg+xml</dc:format>
    <dc:creator>
     <cc:Agent>
      <dc:title>Matplotlib v3.4.2, https://matplotlib.org/</dc:title>
     </cc:Agent>
    </dc:creator>
   </cc:Work>
  </rdf:RDF>
 </metadata>
 <defs>
  <style type="text/css">*{stroke-linecap:butt;stroke-linejoin:round;}</style>
 </defs>
 <g id="figure_1">
  <g id="patch_1">
   <path d="M 0 216 
L 460.8 216 
L 460.8 0 
L 0 0 
z
" style="fill:#ffffff;"/>
  </g>
  <g id="axes_1">
   <g id="patch_2">
    <path d="M 41.768158 168.949694 
L 444.707787 168.949694 
L 444.707787 24.26218 
L 41.768158 24.26218 
z
" style="fill:#ffffff;"/>
   </g>
   <g id="PolyCollection_1">
    <path clip-path="url(#p63531c5b59)" d="M 68.71245 84.468184 
L 68.71245 68.437366 
L 103.005184 56.906433 
L 121.376292 55.529738 
L 139.747399 52.100936 
L 164.24221 45.915908 
L 194.860723 51.114854 
L 219.355533 49.800238 
L 243.850343 49.450007 
L 276.305967 52.586685 
L 308.76159 58.053239 
L 329.582179 66.469993 
L 329.582179 86.349723 
L 329.582179 86.349723 
L 308.76159 83.054394 
L 276.305967 80.855661 
L 243.850343 79.294439 
L 219.355533 79.096671 
L 194.860723 79.082555 
L 164.24221 76.920792 
L 139.747399 78.209061 
L 121.376292 79.117006 
L 103.005184 79.289427 
L 68.71245 84.468184 
z
" style="fill:#1f77b4;fill-opacity:0.3;"/>
   </g>
   <g id="PolyCollection_2">
    <path clip-path="url(#p63531c5b59)" d="M 68.71245 67.481821 
L 68.71245 43.296805 
L 103.005184 32.397204 
L 121.376292 32.034213 
L 139.747399 30.324502 
L 164.24221 32.215522 
L 194.860723 31.335711 
L 219.355533 33.72517 
L 243.850343 35.962178 
L 276.305967 38.549426 
L 308.76159 43.761142 
L 329.582179 54.452618 
L 329.582179 82.162916 
L 329.582179 82.162916 
L 308.76159 78.439979 
L 276.305967 76.350025 
L 243.850343 74.98457 
L 219.355533 73.682731 
L 194.860723 71.696571 
L 164.24221 70.780034 
L 139.747399 68.876597 
L 121.376292 67.970907 
L 103.005184 66.124645 
L 68.71245 67.481821 
z
" style="fill:#1f77b4;fill-opacity:0.3;"/>
   </g>
   <g id="PolyCollection_3">
    <path clip-path="url(#p63531c5b59)" d="M 68.71245 151.570953 
L 68.71245 151.398254 
L 103.005184 144.580086 
L 121.376292 140.871492 
L 139.747399 135.144992 
L 164.24221 130.228744 
L 194.860723 120.793343 
L 219.355533 114.878967 
L 243.850343 109.666946 
L 276.305967 104.395694 
L 308.76159 100.298679 
L 329.582179 99.321425 
L 329.582179 103.571919 
L 329.582179 103.571919 
L 308.76159 104.223458 
L 276.305967 107.278865 
L 243.850343 111.913741 
L 219.355533 116.843809 
L 194.860723 122.354244 
L 164.24221 131.451031 
L 139.747399 136.379684 
L 121.376292 141.909998 
L 103.005184 145.305872 
L 68.71245 151.570953 
z
" style="fill:#ff7f0e;fill-opacity:0.3;"/>
   </g>
   <g id="matplotlib.axis_1">
    <g id="xtick_1">
     <g id="line2d_1">
      <defs>
       <path d="M 0 0 
L 0 3.5 
" id="m8a8d3ee784" style="stroke:#000000;stroke-width:0.8;"/>
      </defs>
      <g>
       <use style="stroke:#000000;stroke-width:0.8;" x="41.768158" xlink:href="#m8a8d3ee784" y="168.949694"/>
      </g>
     </g>
     <g id="text_1">
      <!-- $\mathdefault{0}$ -->
      <g transform="translate(38.841663 184.251873)scale(0.12 -0.12)">
       <defs>
        <path d="M 2688 2025 
C 2688 2416 2682 3080 2413 3591 
C 2176 4039 1798 4198 1466 4198 
C 1158 4198 768 4058 525 3597 
C 269 3118 243 2524 243 2025 
C 243 1661 250 1106 448 619 
C 723 -39 1216 -128 1466 -128 
C 1760 -128 2208 -7 2470 600 
C 2662 1042 2688 1559 2688 2025 
z
M 1466 -26 
C 1056 -26 813 325 723 812 
C 653 1188 653 1738 653 2096 
C 653 2588 653 2997 736 3387 
C 858 3929 1216 4096 1466 4096 
C 1728 4096 2067 3923 2189 3400 
C 2272 3036 2278 2607 2278 2096 
C 2278 1680 2278 1169 2202 792 
C 2067 95 1690 -26 1466 -26 
z
" id="CMR17-30" transform="scale(0.015625)"/>
       </defs>
       <use transform="scale(0.996264)" xlink:href="#CMR17-30"/>
      </g>
     </g>
    </g>
    <g id="xtick_2">
     <g id="line2d_2">
      <g>
       <use style="stroke:#000000;stroke-width:0.8;" x="103.005184" xlink:href="#m8a8d3ee784" y="168.949694"/>
      </g>
     </g>
     <g id="text_2">
      <!-- $\mathdefault{1}$ -->
      <g transform="translate(100.078689 184.251873)scale(0.12 -0.12)">
       <defs>
        <path d="M 1702 4058 
C 1702 4192 1696 4192 1606 4192 
C 1357 3916 979 3827 621 3827 
C 602 3827 570 3827 563 3808 
C 557 3795 557 3782 557 3648 
C 755 3648 1088 3686 1344 3839 
L 1344 461 
C 1344 236 1331 160 781 160 
L 589 160 
L 589 0 
C 896 0 1216 0 1523 0 
C 1830 0 2150 0 2458 0 
L 2458 160 
L 2266 160 
C 1715 160 1702 230 1702 458 
L 1702 4058 
z
" id="CMR17-31" transform="scale(0.015625)"/>
       </defs>
       <use transform="scale(0.996264)" xlink:href="#CMR17-31"/>
      </g>
     </g>
    </g>
    <g id="xtick_3">
     <g id="line2d_3">
      <g>
       <use style="stroke:#000000;stroke-width:0.8;" x="164.24221" xlink:href="#m8a8d3ee784" y="168.949694"/>
      </g>
     </g>
     <g id="text_3">
      <!-- $\mathdefault{2}$ -->
      <g transform="translate(161.315715 184.251873)scale(0.12 -0.12)">
       <defs>
        <path d="M 2669 989 
L 2554 989 
C 2490 536 2438 459 2413 420 
C 2381 369 1920 369 1830 369 
L 602 369 
C 832 619 1280 1072 1824 1597 
C 2214 1967 2669 2402 2669 3035 
C 2669 3790 2067 4224 1395 4224 
C 691 4224 262 3604 262 3030 
C 262 2780 448 2748 525 2748 
C 589 2748 781 2787 781 3010 
C 781 3207 614 3264 525 3264 
C 486 3264 448 3258 422 3245 
C 544 3790 915 4058 1306 4058 
C 1862 4058 2227 3617 2227 3035 
C 2227 2479 1901 2000 1536 1584 
L 262 146 
L 262 0 
L 2515 0 
L 2669 989 
z
" id="CMR17-32" transform="scale(0.015625)"/>
       </defs>
       <use transform="scale(0.996264)" xlink:href="#CMR17-32"/>
      </g>
     </g>
    </g>
    <g id="xtick_4">
     <g id="line2d_4">
      <g>
       <use style="stroke:#000000;stroke-width:0.8;" x="225.479235" xlink:href="#m8a8d3ee784" y="168.949694"/>
      </g>
     </g>
     <g id="text_4">
      <!-- $\mathdefault{3}$ -->
      <g transform="translate(222.55274 184.251873)scale(0.12 -0.12)">
       <defs>
        <path d="M 1414 2157 
C 1984 2157 2234 1662 2234 1090 
C 2234 320 1824 25 1453 25 
C 1114 25 563 194 390 693 
C 422 680 454 680 486 680 
C 640 680 755 782 755 948 
C 755 1133 614 1216 486 1216 
C 378 1216 211 1165 211 926 
C 211 335 787 -128 1466 -128 
C 2176 -128 2720 430 2720 1085 
C 2720 1707 2208 2157 1600 2227 
C 2086 2328 2554 2756 2554 3329 
C 2554 3820 2048 4179 1472 4179 
C 890 4179 378 3829 378 3329 
C 378 3110 544 3072 627 3072 
C 762 3072 877 3155 877 3321 
C 877 3486 762 3569 627 3569 
C 602 3569 570 3569 544 3557 
C 730 3959 1235 4032 1459 4032 
C 1683 4032 2106 3925 2106 3320 
C 2106 3143 2080 2828 1862 2550 
C 1670 2304 1453 2304 1242 2284 
C 1210 2284 1062 2269 1037 2269 
C 992 2263 966 2257 966 2208 
C 966 2163 973 2157 1101 2157 
L 1414 2157 
z
" id="CMR17-33" transform="scale(0.015625)"/>
       </defs>
       <use transform="scale(0.996264)" xlink:href="#CMR17-33"/>
      </g>
     </g>
    </g>
    <g id="xtick_5">
     <g id="line2d_5">
      <g>
       <use style="stroke:#000000;stroke-width:0.8;" x="286.716261" xlink:href="#m8a8d3ee784" y="168.949694"/>
      </g>
     </g>
     <g id="text_5">
      <!-- $\mathdefault{4}$ -->
      <g transform="translate(283.789766 184.251873)scale(0.12 -0.12)">
       <defs>
        <path d="M 2150 4122 
C 2150 4256 2144 4256 2029 4256 
L 128 1254 
L 128 1088 
L 1779 1088 
L 1779 457 
C 1779 224 1766 160 1318 160 
L 1197 160 
L 1197 0 
C 1402 0 1747 0 1965 0 
C 2182 0 2528 0 2733 0 
L 2733 160 
L 2611 160 
C 2163 160 2150 224 2150 457 
L 2150 1088 
L 2803 1088 
L 2803 1254 
L 2150 1254 
L 2150 4122 
z
M 1798 3703 
L 1798 1254 
L 256 1254 
L 1798 3703 
z
" id="CMR17-34" transform="scale(0.015625)"/>
       </defs>
       <use transform="scale(0.996264)" xlink:href="#CMR17-34"/>
      </g>
     </g>
    </g>
    <g id="xtick_6">
     <g id="line2d_6">
      <g>
       <use style="stroke:#000000;stroke-width:0.8;" x="347.953287" xlink:href="#m8a8d3ee784" y="168.949694"/>
      </g>
     </g>
     <g id="text_6">
      <!-- $\mathdefault{5}$ -->
      <g transform="translate(345.026792 184.251873)scale(0.12 -0.12)">
       <defs>
        <path d="M 730 3692 
C 794 3666 1056 3584 1325 3584 
C 1920 3584 2246 3911 2432 4100 
C 2432 4157 2432 4192 2394 4192 
C 2387 4192 2374 4192 2323 4163 
C 2099 4058 1837 3973 1517 3973 
C 1325 3973 1037 3999 723 4139 
C 653 4171 640 4171 634 4171 
C 602 4171 595 4164 595 4037 
L 595 2203 
C 595 2089 595 2057 659 2057 
C 691 2057 704 2070 736 2114 
C 941 2401 1222 2522 1542 2522 
C 1766 2522 2246 2382 2246 1289 
C 2246 1085 2246 715 2054 421 
C 1894 159 1645 25 1370 25 
C 947 25 518 320 403 814 
C 429 807 480 795 506 795 
C 589 795 749 840 749 1038 
C 749 1210 627 1280 506 1280 
C 358 1280 262 1190 262 1011 
C 262 454 704 -128 1382 -128 
C 2042 -128 2669 440 2669 1264 
C 2669 2030 2170 2624 1549 2624 
C 1222 2624 947 2503 730 2274 
L 730 3692 
z
" id="CMR17-35" transform="scale(0.015625)"/>
       </defs>
       <use transform="scale(0.996264)" xlink:href="#CMR17-35"/>
      </g>
     </g>
    </g>
    <g id="xtick_7">
     <g id="line2d_7">
      <g>
       <use style="stroke:#000000;stroke-width:0.8;" x="409.190312" xlink:href="#m8a8d3ee784" y="168.949694"/>
      </g>
     </g>
     <g id="text_7">
      <!-- $\mathdefault{6}$ -->
      <g transform="translate(406.263817 184.251873)scale(0.12 -0.12)">
       <defs>
        <path d="M 678 2176 
C 678 3690 1395 4032 1811 4032 
C 1946 4032 2272 4009 2400 3776 
C 2298 3776 2106 3776 2106 3553 
C 2106 3381 2246 3323 2336 3323 
C 2394 3323 2566 3348 2566 3560 
C 2566 3954 2246 4179 1805 4179 
C 1043 4179 243 3390 243 1984 
C 243 253 966 -128 1478 -128 
C 2099 -128 2688 427 2688 1283 
C 2688 2081 2170 2662 1517 2662 
C 1126 2662 838 2407 678 1960 
L 678 2176 
z
M 1478 25 
C 691 25 691 1200 691 1436 
C 691 1896 909 2560 1504 2560 
C 1613 2560 1926 2560 2138 2120 
C 2253 1870 2253 1609 2253 1289 
C 2253 944 2253 690 2118 434 
C 1978 171 1773 25 1478 25 
z
" id="CMR17-36" transform="scale(0.015625)"/>
       </defs>
       <use transform="scale(0.996264)" xlink:href="#CMR17-36"/>
      </g>
     </g>
    </g>
    <g id="text_8">
     <!-- Puff rate (s$^{-1}$) -->
     <g transform="translate(206.087257 200.051208)scale(0.12 -0.12)">
      <defs>
       <path d="M 1267 2042 
L 2291 2042 
C 3117 2042 3718 2578 3718 3184 
C 3718 3791 3130 4352 2291 4352 
L 333 4352 
L 333 4186 
C 774 4186 845 4186 845 3899 
L 845 446 
C 845 160 774 160 333 160 
L 333 0 
C 518 0 858 0 1056 0 
C 1254 0 1594 0 1779 0 
L 1779 160 
C 1338 160 1267 160 1267 446 
L 1267 2042 
z
M 1254 2176 
L 1254 3938 
C 1254 4155 1267 4186 1523 4186 
L 2170 4186 
C 2995 4186 3232 3714 3232 3184 
C 3232 2604 2950 2176 2170 2176 
L 1254 2176 
z
" id="CMR17-50" transform="scale(0.015625)"/>
       <path d="M 1882 2693 
L 1882 2528 
C 2259 2528 2317 2489 2317 2186 
L 2317 1032 
C 2317 500 2029 38 1555 38 
C 1030 38 986 348 986 678 
L 986 2763 
L 211 2693 
L 211 2528 
C 467 2528 640 2528 646 2274 
L 646 1058 
C 646 633 646 361 813 183 
C 896 101 1056 -64 1517 -64 
C 2061 -64 2272 377 2323 506 
L 2330 506 
L 2330 -63 
L 3091 -63 
L 3091 128 
C 2714 128 2656 166 2656 473 
L 2656 2763 
L 1882 2693 
z
" id="CMR17-75" transform="scale(0.015625)"/>
       <path d="M 2554 2560 
L 3283 2560 
L 3283 2725 
L 2541 2725 
L 2541 3494 
C 2541 4022 2810 4352 3085 4352 
C 3168 4352 3264 4327 3328 4282 
C 3277 4269 3142 4225 3142 4067 
C 3142 3901 3270 3850 3360 3850 
C 3450 3850 3578 3901 3578 4067 
C 3578 4308 3347 4454 3091 4454 
C 2842 4454 2637 4333 2477 4181 
C 2330 4390 2086 4454 1837 4454 
C 1338 4454 634 4168 634 3469 
L 634 2725 
L 122 2725 
L 122 2560 
L 634 2560 
L 634 427 
C 634 184 608 153 198 153 
L 198 -13 
C 352 0 634 0 794 0 
C 960 0 1242 0 1395 -13 
L 1395 153 
C 986 153 960 178 960 427 
L 960 2560 
L 2227 2560 
L 2227 427 
C 2227 184 2202 153 1792 153 
L 1792 -13 
C 1946 0 2240 0 2406 0 
C 2592 0 2918 0 3091 -13 
L 3091 153 
C 2630 153 2554 153 2554 439 
L 2554 2560 
z
M 947 2725 
L 947 3469 
C 947 4047 1395 4352 1824 4352 
C 1920 4352 2170 4332 2323 4187 
C 2208 4187 2099 4136 2099 3977 
C 2099 3812 2246 3767 2259 3767 
C 2227 3652 2227 3526 2227 3481 
L 2227 2725 
L 947 2725 
z
" id="CMR17-b" transform="scale(0.015625)"/>
       <path d="M 960 1497 
C 960 2112 1222 2688 1702 2688 
C 1747 2688 1792 2682 1837 2662 
C 1837 2662 1696 2617 1696 2452 
C 1696 2298 1818 2234 1914 2234 
C 1990 2234 2131 2279 2131 2458 
C 2131 2663 1926 2790 1709 2790 
C 1222 2790 1011 2317 947 2093 
L 941 2093 
L 941 2790 
L 198 2720 
L 198 2554 
C 576 2554 634 2515 634 2208 
L 634 428 
C 634 184 608 153 198 153 
L 198 -13 
C 352 0 646 0 813 0 
C 998 0 1325 0 1498 -13 
L 1498 153 
C 1037 153 960 153 960 440 
L 960 1497 
z
" id="CMR17-72" transform="scale(0.015625)"/>
       <path d="M 2304 1653 
C 2304 2072 2304 2294 2035 2543 
C 1798 2752 1523 2816 1306 2816 
C 800 2816 435 2407 435 1971 
C 435 1728 627 1728 666 1728 
C 749 1728 896 1778 896 1954 
C 896 2112 774 2181 666 2181 
C 640 2181 608 2174 589 2168 
C 723 2592 1069 2714 1293 2714 
C 1613 2714 1965 2429 1965 1885 
L 1965 1600 
C 1587 1600 1133 1549 774 1357 
C 371 1133 256 813 256 570 
C 256 77 832 -64 1171 -64 
C 1523 -64 1850 139 1990 511 
C 2003 233 2182 -18 2464 -18 
C 2598 -18 2938 70 2938 567 
L 2938 920 
L 2822 920 
L 2822 562 
C 2822 178 2650 128 2566 128 
C 2304 128 2304 458 2304 738 
L 2304 1653 
z
M 1965 870 
C 1965 317 1568 38 1216 38 
C 896 38 646 275 646 570 
C 646 761 730 1100 1101 1305 
C 1408 1478 1760 1504 1965 1504 
L 1965 870 
z
" id="CMR17-61" transform="scale(0.015625)"/>
       <path d="M 966 2560 
L 1862 2560 
L 1862 2725 
L 966 2725 
L 966 3904 
L 851 3904 
C 838 3245 614 2668 70 2668 
L 70 2560 
L 627 2560 
L 627 771 
C 627 650 627 -64 1370 -64 
C 1747 -64 1965 306 1965 777 
L 1965 1140 
L 1850 1140 
L 1850 783 
C 1850 344 1677 51 1408 51 
C 1222 51 966 178 966 758 
L 966 2560 
z
" id="CMR17-74" transform="scale(0.015625)"/>
       <path d="M 2438 1472 
C 2464 1498 2464 1511 2464 1576 
C 2464 2238 2118 2816 1389 2816 
C 710 2816 173 2169 173 1383 
C 173 551 781 -64 1459 -64 
C 2176 -64 2458 607 2458 740 
C 2458 784 2419 784 2406 784 
C 2362 784 2355 771 2330 696 
C 2189 265 1837 51 1504 51 
C 1229 51 954 203 781 480 
C 582 803 582 1176 582 1472 
L 2438 1472 
z
M 589 1568 
C 634 2505 1126 2714 1382 2714 
C 1818 2714 2112 2297 2118 1568 
L 589 1568 
z
" id="CMR17-65" transform="scale(0.015625)"/>
       <path d="M 1958 -1561 
C 1958 -1555 1958 -1542 1939 -1523 
C 1645 -1224 858 -407 858 1581 
C 858 3569 1632 4379 1946 4697 
C 1946 4704 1958 4717 1958 4736 
C 1958 4755 1939 4768 1914 4768 
C 1843 4768 1299 4296 986 3594 
C 666 2887 576 2199 576 1588 
C 576 1128 621 351 1005 -471 
C 1312 -1135 1837 -1600 1914 -1600 
C 1946 -1600 1958 -1587 1958 -1561 
z
" id="CMR17-28" transform="scale(0.015625)"/>
       <path d="M 1978 2697 
C 1978 2813 1971 2819 1933 2819 
C 1907 2819 1901 2813 1824 2717 
C 1805 2691 1747 2626 1728 2601 
C 1523 2819 1235 2819 1126 2819 
C 416 2819 160 2447 160 2076 
C 160 1498 813 1365 998 1325 
C 1402 1243 1542 1217 1677 1101 
C 1760 1025 1901 884 1901 654 
C 1901 384 1747 38 1158 38 
C 602 38 403 460 288 1021 
C 269 1110 269 1117 218 1117 
C 166 1117 160 1110 160 983 
L 160 63 
C 160 -51 166 -58 205 -58 
C 237 -58 243 -51 275 0 
C 314 57 410 211 448 276 
C 576 103 800 -64 1158 -64 
C 1792 -64 2131 283 2131 784 
C 2131 1112 1958 1285 1875 1362 
C 1683 1561 1459 1606 1190 1657 
C 838 1735 390 1825 390 2217 
C 390 2383 480 2737 1126 2737 
C 1811 2737 1850 2094 1862 1888 
C 1869 1856 1901 1849 1920 1849 
C 1978 1849 1978 1869 1978 1978 
L 1978 2697 
z
" id="CMR17-73" transform="scale(0.015625)"/>
       <path d="M 4218 1472 
C 4326 1472 4442 1472 4442 1600 
C 4442 1728 4326 1728 4218 1728 
L 755 1728 
C 646 1728 531 1728 531 1600 
C 531 1472 646 1472 755 1472 
L 4218 1472 
z
" id="CMSY10-0" transform="scale(0.015625)"/>
       <path d="M 1683 1581 
C 1683 2040 1638 2817 1254 3639 
C 947 4303 422 4768 346 4768 
C 326 4768 301 4761 301 4729 
C 301 4717 307 4710 314 4697 
C 621 4378 1402 3568 1402 1584 
C 1402 -407 627 -1217 314 -1537 
C 307 -1549 301 -1556 301 -1568 
C 301 -1600 326 -1600 346 -1600 
C 416 -1600 960 -1128 1274 -426 
C 1594 281 1683 969 1683 1581 
z
" id="CMR17-29" transform="scale(0.015625)"/>
      </defs>
      <use transform="scale(0.996264)" xlink:href="#CMR17-50"/>
      <use transform="translate(62.586301 0)scale(0.996264)" xlink:href="#CMR17-75"/>
      <use transform="translate(113.48167 0)scale(0.996264)" xlink:href="#CMR17-b"/>
      <use transform="translate(195.902314 0)scale(0.996264)" xlink:href="#CMR17-72"/>
      <use transform="translate(231.183082 0)scale(0.996264)" xlink:href="#CMR17-61"/>
      <use transform="translate(276.873559 0)scale(0.996264)" xlink:href="#CMR17-74"/>
      <use transform="translate(312.154327 0)scale(0.996264)" xlink:href="#CMR17-65"/>
      <use transform="translate(382.715953 0)scale(0.996264)" xlink:href="#CMR17-28"/>
      <use transform="translate(417.996721 0)scale(0.996264)" xlink:href="#CMR17-73"/>
      <use transform="translate(453.798059 36.153639)scale(0.697382)" xlink:href="#CMSY10-0"/>
      <use transform="translate(508.039052 36.153639)scale(0.697382)" xlink:href="#CMR17-31"/>
      <use transform="translate(540.520366 0)scale(0.996264)" xlink:href="#CMR17-29"/>
     </g>
    </g>
    <g id="text_9">
     <!-- $\times\mathdefault{10^{21}}\mathdefault{}$ -->
     <g transform="translate(415.234952 197.878649)scale(0.12 -0.12)">
      <defs>
       <path d="M 2490 1785 
L 1210 3059 
C 1133 3136 1120 3148 1069 3148 
C 1005 3148 941 3091 941 3020 
C 941 2976 954 2963 1024 2892 
L 2304 1606 
L 1024 320 
C 954 249 941 236 941 192 
C 941 121 1005 64 1069 64 
C 1120 64 1133 76 1210 153 
L 2483 1427 
L 3808 102 
C 3821 96 3866 64 3904 64 
C 3981 64 4032 121 4032 192 
C 4032 204 4032 230 4013 262 
C 4006 275 2989 1280 2669 1606 
L 3840 2777 
C 3872 2816 3968 2899 4000 2937 
C 4006 2950 4032 2976 4032 3020 
C 4032 3091 3981 3148 3904 3148 
C 3853 3148 3827 3123 3757 3052 
L 2490 1785 
z
" id="CMSY10-2" transform="scale(0.015625)"/>
      </defs>
      <use transform="scale(0.996264)" xlink:href="#CMSY10-2"/>
      <use transform="translate(77.487468 0)scale(0.996264)" xlink:href="#CMR17-31"/>
      <use transform="translate(123.177945 0)scale(0.996264)" xlink:href="#CMR17-30"/>
      <use transform="translate(168.868422 36.153639)scale(0.697382)" xlink:href="#CMR17-32"/>
      <use transform="translate(200.851604 36.153639)scale(0.697382)" xlink:href="#CMR17-31"/>
     </g>
    </g>
   </g>
   <g id="matplotlib.axis_2">
    <g id="ytick_1">
     <g id="line2d_8">
      <defs>
       <path d="M 0 0 
L -3.5 0 
" id="md27e55be07" style="stroke:#000000;stroke-width:0.8;"/>
      </defs>
      <g>
       <use style="stroke:#000000;stroke-width:0.8;" x="41.768158" xlink:href="#md27e55be07" y="168.949694"/>
      </g>
     </g>
     <g id="text_10">
      <!-- $\mathdefault{0}$ -->
      <g transform="translate(28.915168 173.100783)scale(0.12 -0.12)">
       <use transform="scale(0.996264)" xlink:href="#CMR17-30"/>
      </g>
     </g>
    </g>
    <g id="ytick_2">
     <g id="line2d_9">
      <g>
       <use style="stroke:#000000;stroke-width:0.8;" x="41.768158" xlink:href="#md27e55be07" y="138.834937"/>
      </g>
     </g>
     <g id="text_11">
      <!-- $\mathdefault{1}$ -->
      <g transform="translate(28.915168 142.986027)scale(0.12 -0.12)">
       <use transform="scale(0.996264)" xlink:href="#CMR17-31"/>
      </g>
     </g>
    </g>
    <g id="ytick_3">
     <g id="line2d_10">
      <g>
       <use style="stroke:#000000;stroke-width:0.8;" x="41.768158" xlink:href="#md27e55be07" y="108.72018"/>
      </g>
     </g>
     <g id="text_12">
      <!-- $\mathdefault{2}$ -->
      <g transform="translate(28.915168 112.87127)scale(0.12 -0.12)">
       <use transform="scale(0.996264)" xlink:href="#CMR17-32"/>
      </g>
     </g>
    </g>
    <g id="ytick_4">
     <g id="line2d_11">
      <g>
       <use style="stroke:#000000;stroke-width:0.8;" x="41.768158" xlink:href="#md27e55be07" y="78.605424"/>
      </g>
     </g>
     <g id="text_13">
      <!-- $\mathdefault{3}$ -->
      <g transform="translate(28.915168 82.756514)scale(0.12 -0.12)">
       <use transform="scale(0.996264)" xlink:href="#CMR17-33"/>
      </g>
     </g>
    </g>
    <g id="ytick_5">
     <g id="line2d_12">
      <g>
       <use style="stroke:#000000;stroke-width:0.8;" x="41.768158" xlink:href="#md27e55be07" y="48.490667"/>
      </g>
     </g>
     <g id="text_14">
      <!-- $\mathdefault{4}$ -->
      <g transform="translate(28.915168 52.641757)scale(0.12 -0.12)">
       <use transform="scale(0.996264)" xlink:href="#CMR17-34"/>
      </g>
     </g>
    </g>
    <g id="text_15">
     <!-- Inventory (H/m) -->
     <g transform="translate(21.926376 139.686298)rotate(-90)scale(0.12 -0.12)">
      <defs>
       <path d="M 1261 3905 
C 1261 4192 1338 4192 1798 4192 
L 1798 4352 
C 1594 4352 1267 4352 1050 4352 
C 832 4352 506 4352 301 4352 
L 301 4192 
C 762 4192 838 4192 838 3905 
L 838 447 
C 838 160 762 160 301 160 
L 301 0 
C 506 0 832 0 1050 0 
C 1267 0 1594 0 1798 0 
L 1798 160 
C 1338 160 1261 160 1261 447 
L 1261 3905 
z
" id="CMR17-49" transform="scale(0.015625)"/>
       <path d="M 2656 1933 
C 2656 2259 2592 2790 1837 2790 
C 1331 2790 1069 2400 973 2144 
L 966 2144 
L 966 2790 
L 211 2720 
L 211 2554 
C 589 2554 646 2515 646 2208 
L 646 428 
C 646 184 621 153 211 153 
L 211 -13 
C 365 0 646 0 813 0 
C 979 0 1267 0 1421 -13 
L 1421 153 
C 1011 153 986 178 986 428 
L 986 1658 
C 986 2247 1344 2688 1792 2688 
C 2266 2688 2317 2266 2317 1958 
L 2317 428 
C 2317 184 2291 153 1882 153 
L 1882 -13 
C 2035 0 2317 0 2483 0 
C 2650 0 2938 0 3091 -13 
L 3091 153 
C 2682 153 2656 178 2656 428 
L 2656 1933 
z
" id="CMR17-6e" transform="scale(0.015625)"/>
       <path d="M 2502 2163 
C 2560 2304 2662 2560 3034 2560 
L 3034 2726 
C 2912 2726 2752 2726 2630 2726 
C 2496 2726 2285 2726 2157 2732 
L 2157 2566 
C 2317 2553 2406 2477 2406 2311 
C 2406 2253 2406 2240 2368 2151 
L 1664 377 
L 902 2286 
C 864 2369 864 2381 864 2407 
C 864 2560 1075 2560 1171 2560 
L 1171 2732 
C 1018 2726 736 2726 576 2726 
C 403 2726 205 2726 64 2732 
L 64 2560 
C 307 2560 442 2560 518 2362 
L 1446 44 
C 1485 -51 1491 -64 1549 -64 
C 1606 -64 1613 -51 1651 44 
L 2502 2163 
z
" id="CMR17-76" transform="scale(0.015625)"/>
       <path d="M 2758 1356 
C 2758 2176 2163 2816 1466 2816 
C 768 2816 173 2176 173 1356 
C 173 551 768 -64 1466 -64 
C 2163 -64 2758 551 2758 1356 
z
M 1466 51 
C 1165 51 909 230 762 480 
C 602 767 582 1126 582 1408 
C 582 1677 595 2010 762 2298 
C 890 2509 1139 2714 1466 2714 
C 1754 2714 1997 2554 2150 2330 
C 2349 2029 2349 1607 2349 1408 
C 2349 1158 2336 775 2163 467 
C 1984 173 1709 51 1466 51 
z
" id="CMR17-6f" transform="scale(0.015625)"/>
       <path d="M 2496 2197 
C 2656 2586 2944 2586 3034 2586 
L 3034 2752 
C 2912 2752 2752 2752 2630 2752 
C 2496 2752 2285 2752 2157 2758 
L 2157 2592 
C 2400 2573 2406 2394 2406 2343 
C 2406 2280 2394 2248 2362 2171 
L 1664 449 
L 902 2306 
C 870 2382 870 2426 870 2433 
C 870 2573 1018 2586 1171 2586 
L 1171 2758 
C 1018 2752 742 2752 582 2752 
C 410 2752 205 2752 64 2758 
L 64 2586 
C 410 2586 448 2554 531 2350 
L 1485 15 
C 1197 -738 1030 -1178 627 -1178 
C 557 -1178 397 -1159 282 -1044 
C 429 -1031 493 -942 493 -833 
C 493 -725 416 -629 288 -629 
C 147 -629 77 -725 77 -840 
C 77 -1095 339 -1280 627 -1280 
C 998 -1280 1229 -922 1357 -604 
L 2496 2197 
z
" id="CMR17-79" transform="scale(0.015625)"/>
       <path d="M 3590 3905 
C 3590 4192 3661 4192 4102 4192 
L 4102 4352 
C 3917 4352 3578 4352 3379 4352 
C 3181 4352 2842 4352 2656 4352 
L 2656 4192 
C 3098 4192 3168 4192 3168 3904 
L 3168 2341 
L 1261 2341 
L 1261 3904 
C 1261 4192 1331 4192 1773 4192 
L 1773 4352 
C 1587 4352 1248 4352 1050 4352 
C 851 4352 512 4352 326 4352 
L 326 4192 
C 768 4192 838 4192 838 3905 
L 838 447 
C 838 160 768 160 326 160 
L 326 0 
C 512 0 851 0 1050 0 
C 1248 0 1587 0 1773 0 
L 1773 160 
C 1331 160 1261 160 1261 446 
L 1261 2176 
L 3168 2176 
L 3168 446 
C 3168 160 3098 160 2656 160 
L 2656 0 
C 2842 0 3181 0 3379 0 
C 3578 0 3917 0 4102 0 
L 4102 160 
C 3661 160 3590 160 3590 447 
L 3590 3905 
z
" id="CMR17-48" transform="scale(0.015625)"/>
       <path d="M 2605 4545 
C 2637 4627 2637 4640 2637 4653 
C 2637 4729 2579 4768 2528 4768 
C 2451 4768 2426 4717 2400 4640 
L 326 -1377 
C 294 -1460 294 -1473 294 -1486 
C 294 -1562 352 -1600 403 -1600 
C 480 -1600 506 -1549 531 -1473 
L 2605 4545 
z
" id="CMR17-2f" transform="scale(0.015625)"/>
       <path d="M 4326 1933 
C 4326 2252 4269 2790 3507 2790 
C 3072 2790 2771 2496 2656 2151 
L 2650 2151 
C 2573 2676 2195 2790 1837 2790 
C 1331 2790 1069 2400 973 2144 
L 966 2144 
L 966 2790 
L 211 2720 
L 211 2554 
C 589 2554 646 2515 646 2208 
L 646 428 
C 646 184 621 153 211 153 
L 211 -13 
C 365 0 646 0 813 0 
C 979 0 1267 0 1421 -13 
L 1421 153 
C 1011 153 986 178 986 428 
L 986 1658 
C 986 2247 1344 2688 1792 2688 
C 2266 2688 2317 2266 2317 1958 
L 2317 428 
C 2317 184 2291 153 1882 153 
L 1882 -13 
C 2035 0 2317 0 2483 0 
C 2650 0 2938 0 3091 -13 
L 3091 153 
C 2682 153 2656 178 2656 428 
L 2656 1658 
C 2656 2247 3014 2688 3462 2688 
C 3936 2688 3987 2266 3987 1958 
L 3987 428 
C 3987 184 3962 153 3552 153 
L 3552 -13 
C 3706 0 3987 0 4154 0 
C 4320 0 4608 0 4762 -13 
L 4762 153 
C 4352 153 4326 178 4326 428 
L 4326 1933 
z
" id="CMR17-6d" transform="scale(0.015625)"/>
      </defs>
      <use transform="scale(0.996264)" xlink:href="#CMR17-49"/>
      <use transform="translate(32.638409 0)scale(0.996264)" xlink:href="#CMR17-6e"/>
      <use transform="translate(80.931325 0)scale(0.996264)" xlink:href="#CMR17-76"/>
      <use transform="translate(126.621787 0)scale(0.996264)" xlink:href="#CMR17-65"/>
      <use transform="translate(167.107447 0)scale(0.996264)" xlink:href="#CMR17-6e"/>
      <use transform="translate(215.400363 0)scale(0.996264)" xlink:href="#CMR17-74"/>
      <use transform="translate(250.681131 0)scale(0.996264)" xlink:href="#CMR17-6f"/>
      <use transform="translate(296.371608 0)scale(0.996264)" xlink:href="#CMR17-72"/>
      <use transform="translate(331.652376 0)scale(0.996264)" xlink:href="#CMR17-79"/>
      <use transform="translate(410.021258 0)scale(0.996264)" xlink:href="#CMR17-28"/>
      <use transform="translate(445.302026 0)scale(0.996264)" xlink:href="#CMR17-48"/>
      <use transform="translate(514.374456 0)scale(0.996264)" xlink:href="#CMR17-2f"/>
      <use transform="translate(560.064933 0)scale(0.996264)" xlink:href="#CMR17-6d"/>
      <use transform="translate(636.984523 0)scale(0.996264)" xlink:href="#CMR17-29"/>
     </g>
    </g>
    <g id="text_16">
     <!-- $\times\mathdefault{10^{21}}\mathdefault{}$ -->
     <g transform="translate(41.768158 21.26218)scale(0.12 -0.12)">
      <use transform="scale(0.996264)" xlink:href="#CMSY10-2"/>
      <use transform="translate(77.487468 0)scale(0.996264)" xlink:href="#CMR17-31"/>
      <use transform="translate(123.177945 0)scale(0.996264)" xlink:href="#CMR17-30"/>
      <use transform="translate(168.868422 36.153639)scale(0.697382)" xlink:href="#CMR17-32"/>
      <use transform="translate(200.851604 36.153639)scale(0.697382)" xlink:href="#CMR17-31"/>
     </g>
    </g>
   </g>
   <g id="line2d_13">
    <path clip-path="url(#p63531c5b59)" d="M 68.71245 76.800721 
L 103.005184 68.720813 
L 121.376292 68.010011 
L 139.747399 65.979163 
L 164.24221 62.541685 
L 194.860723 66.044496 
L 219.355533 65.480187 
L 243.850343 65.442328 
L 276.305967 67.703031 
L 308.76159 71.351107 
L 329.582179 76.945236 
" style="fill:none;stroke:#1f77b4;stroke-linecap:square;stroke-width:1.5;"/>
    <defs>
     <path d="M -3 0 
L 3 0 
M 0 3 
L 0 -3 
" id="mf0340a691c" style="stroke:#1f77b4;"/>
    </defs>
    <g clip-path="url(#p63531c5b59)">
     <use style="fill:#1f77b4;stroke:#1f77b4;" x="68.71245" xlink:href="#mf0340a691c" y="76.800721"/>
     <use style="fill:#1f77b4;stroke:#1f77b4;" x="103.005184" xlink:href="#mf0340a691c" y="68.720813"/>
     <use style="fill:#1f77b4;stroke:#1f77b4;" x="121.376292" xlink:href="#mf0340a691c" y="68.010011"/>
     <use style="fill:#1f77b4;stroke:#1f77b4;" x="139.747399" xlink:href="#mf0340a691c" y="65.979163"/>
     <use style="fill:#1f77b4;stroke:#1f77b4;" x="164.24221" xlink:href="#mf0340a691c" y="62.541685"/>
     <use style="fill:#1f77b4;stroke:#1f77b4;" x="194.860723" xlink:href="#mf0340a691c" y="66.044496"/>
     <use style="fill:#1f77b4;stroke:#1f77b4;" x="219.355533" xlink:href="#mf0340a691c" y="65.480187"/>
     <use style="fill:#1f77b4;stroke:#1f77b4;" x="243.850343" xlink:href="#mf0340a691c" y="65.442328"/>
     <use style="fill:#1f77b4;stroke:#1f77b4;" x="276.305967" xlink:href="#mf0340a691c" y="67.703031"/>
     <use style="fill:#1f77b4;stroke:#1f77b4;" x="308.76159" xlink:href="#mf0340a691c" y="71.351107"/>
     <use style="fill:#1f77b4;stroke:#1f77b4;" x="329.582179" xlink:href="#mf0340a691c" y="76.945236"/>
    </g>
   </g>
   <g id="line2d_14">
    <path clip-path="url(#p63531c5b59)" d="M 68.71245 56.034986 
L 103.005184 50.454899 
L 121.376292 51.367556 
L 139.747399 51.16747 
L 164.24221 53.091388 
L 194.860723 53.263093 
L 219.355533 55.448902 
L 243.850343 57.163342 
L 276.305967 59.063291 
L 308.76159 62.503557 
L 329.582179 69.266032 
" style="fill:none;stroke:#1f77b4;stroke-linecap:square;stroke-width:1.5;"/>
    <g clip-path="url(#p63531c5b59)">
     <use style="fill:#1f77b4;stroke:#1f77b4;" x="68.71245" xlink:href="#mf0340a691c" y="56.034986"/>
     <use style="fill:#1f77b4;stroke:#1f77b4;" x="103.005184" xlink:href="#mf0340a691c" y="50.454899"/>
     <use style="fill:#1f77b4;stroke:#1f77b4;" x="121.376292" xlink:href="#mf0340a691c" y="51.367556"/>
     <use style="fill:#1f77b4;stroke:#1f77b4;" x="139.747399" xlink:href="#mf0340a691c" y="51.16747"/>
     <use style="fill:#1f77b4;stroke:#1f77b4;" x="164.24221" xlink:href="#mf0340a691c" y="53.091388"/>
     <use style="fill:#1f77b4;stroke:#1f77b4;" x="194.860723" xlink:href="#mf0340a691c" y="53.263093"/>
     <use style="fill:#1f77b4;stroke:#1f77b4;" x="219.355533" xlink:href="#mf0340a691c" y="55.448902"/>
     <use style="fill:#1f77b4;stroke:#1f77b4;" x="243.850343" xlink:href="#mf0340a691c" y="57.163342"/>
     <use style="fill:#1f77b4;stroke:#1f77b4;" x="276.305967" xlink:href="#mf0340a691c" y="59.063291"/>
     <use style="fill:#1f77b4;stroke:#1f77b4;" x="308.76159" xlink:href="#mf0340a691c" y="62.503557"/>
     <use style="fill:#1f77b4;stroke:#1f77b4;" x="329.582179" xlink:href="#mf0340a691c" y="69.266032"/>
    </g>
   </g>
   <g id="line2d_15">
    <path clip-path="url(#p63531c5b59)" d="M 68.71245 151.484817 
L 103.005184 144.945722 
L 121.376292 141.395637 
L 139.747399 135.76808 
L 164.24221 130.844788 
L 194.860723 121.580223 
L 219.355533 115.870479 
L 243.850343 110.801194 
L 276.305967 105.853746 
L 308.76159 102.289948 
L 329.582179 101.480136 
" style="fill:none;stroke:#ff7f0e;stroke-linecap:square;stroke-width:1.5;"/>
    <defs>
     <path d="M -3 0 
L 3 0 
M 0 3 
L 0 -3 
" id="mc9b52ea00a" style="stroke:#ff7f0e;"/>
    </defs>
    <g clip-path="url(#p63531c5b59)">
     <use style="fill:#ff7f0e;stroke:#ff7f0e;" x="68.71245" xlink:href="#mc9b52ea00a" y="151.484817"/>
     <use style="fill:#ff7f0e;stroke:#ff7f0e;" x="103.005184" xlink:href="#mc9b52ea00a" y="144.945722"/>
     <use style="fill:#ff7f0e;stroke:#ff7f0e;" x="121.376292" xlink:href="#mc9b52ea00a" y="141.395637"/>
     <use style="fill:#ff7f0e;stroke:#ff7f0e;" x="139.747399" xlink:href="#mc9b52ea00a" y="135.76808"/>
     <use style="fill:#ff7f0e;stroke:#ff7f0e;" x="164.24221" xlink:href="#mc9b52ea00a" y="130.844788"/>
     <use style="fill:#ff7f0e;stroke:#ff7f0e;" x="194.860723" xlink:href="#mc9b52ea00a" y="121.580223"/>
     <use style="fill:#ff7f0e;stroke:#ff7f0e;" x="219.355533" xlink:href="#mc9b52ea00a" y="115.870479"/>
     <use style="fill:#ff7f0e;stroke:#ff7f0e;" x="243.850343" xlink:href="#mc9b52ea00a" y="110.801194"/>
     <use style="fill:#ff7f0e;stroke:#ff7f0e;" x="276.305967" xlink:href="#mc9b52ea00a" y="105.853746"/>
     <use style="fill:#ff7f0e;stroke:#ff7f0e;" x="308.76159" xlink:href="#mc9b52ea00a" y="102.289948"/>
     <use style="fill:#ff7f0e;stroke:#ff7f0e;" x="329.582179" xlink:href="#mc9b52ea00a" y="101.480136"/>
    </g>
   </g>
   <g id="patch_3">
    <path d="M 41.768158 168.949694 
L 41.768158 24.26218 
" style="fill:none;stroke:#000000;stroke-linecap:square;stroke-linejoin:miter;stroke-width:0.8;"/>
   </g>
   <g id="patch_4">
    <path d="M 444.707787 168.949694 
L 444.707787 24.26218 
" style="fill:none;stroke:#000000;stroke-linecap:square;stroke-linejoin:miter;stroke-width:0.8;"/>
   </g>
   <g id="patch_5">
    <path d="M 41.768158 168.949694 
L 444.707787 168.949694 
" style="fill:none;stroke:#000000;stroke-linecap:square;stroke-linejoin:miter;stroke-width:0.8;"/>
   </g>
   <g id="patch_6">
    <path d="M 41.768158 24.26218 
L 444.707787 24.26218 
" style="fill:none;stroke:#000000;stroke-linecap:square;stroke-linejoin:miter;stroke-width:0.8;"/>
   </g>
   <g id="text_17">
    <!-- Inner strike point -->
    <g style="fill:#1f77b4;" transform="translate(343.97288 76.945236)scale(0.12 -0.12)">
     <defs>
      <path d="M 992 3909 
C 992 4049 877 4170 730 4170 
C 589 4170 467 4056 467 3909 
C 467 3769 582 3648 730 3648 
C 870 3648 992 3763 992 3909 
z
M 243 2706 
L 243 2541 
C 602 2541 653 2502 653 2197 
L 653 427 
C 653 184 627 153 218 153 
L 218 -13 
C 371 0 646 0 806 0 
C 960 0 1222 0 1370 -13 
L 1370 153 
C 992 153 979 191 979 420 
L 979 2776 
L 243 2706 
z
" id="CMR17-69" transform="scale(0.015625)"/>
      <path d="M 1670 1673 
C 1664 1686 1632 1724 1632 1743 
C 1632 1756 2086 2171 2144 2222 
C 2509 2528 2739 2560 2906 2560 
L 2906 2733 
C 2867 2733 2854 2733 2848 2720 
L 2534 2720 
C 2355 2720 2080 2720 1907 2733 
L 1907 2566 
C 1997 2559 2061 2508 2061 2419 
C 2061 2291 1933 2170 1926 2170 
L 960 1289 
L 960 4396 
L 198 4326 
L 198 4160 
C 576 4160 634 4122 634 3817 
L 634 426 
C 634 184 608 153 198 153 
L 198 -13 
C 352 0 634 0 794 0 
C 954 0 1235 0 1389 -13 
L 1389 153 
C 979 153 954 178 954 428 
L 954 1130 
L 1395 1532 
L 2042 574 
C 2118 459 2182 369 2182 286 
C 2182 172 2067 153 1990 153 
L 1990 -13 
C 2144 0 2419 0 2579 0 
C 2694 0 2931 0 3040 0 
L 3040 153 
C 2739 153 2669 210 2477 491 
L 1670 1673 
z
" id="CMR17-6b" transform="scale(0.015625)"/>
      <path d="M 1408 -1063 
C 998 -1063 973 -1037 973 -789 
L 973 402 
C 1158 134 1427 -38 1766 -38 
C 2406 -38 3053 523 3053 1388 
C 3053 2191 2496 2802 1837 2802 
C 1453 2802 1139 2592 960 2338 
L 960 2802 
L 198 2732 
L 198 2567 
C 576 2567 634 2528 634 2223 
L 634 -789 
C 634 -1031 608 -1063 198 -1063 
L 198 -1228 
C 352 -1216 634 -1216 800 -1216 
C 966 -1216 1254 -1216 1408 -1228 
L 1408 -1063 
z
M 973 2012 
C 973 2102 973 2235 1222 2471 
C 1254 2497 1472 2688 1792 2688 
C 2259 2688 2643 2108 2643 1382 
C 2643 656 2234 64 1728 64 
C 1498 64 1248 172 1056 472 
C 973 612 973 650 973 752 
L 973 2012 
z
" id="CMR17-70" transform="scale(0.015625)"/>
     </defs>
     <use transform="scale(0.996264)" xlink:href="#CMR17-49"/>
     <use transform="translate(32.638409 0)scale(0.996264)" xlink:href="#CMR17-6e"/>
     <use transform="translate(83.533779 0)scale(0.996264)" xlink:href="#CMR17-6e"/>
     <use transform="translate(134.429149 0)scale(0.996264)" xlink:href="#CMR17-65"/>
     <use transform="translate(174.914809 0)scale(0.996264)" xlink:href="#CMR17-72"/>
     <use transform="translate(240.271543 0)scale(0.996264)" xlink:href="#CMR17-73"/>
     <use transform="translate(276.072881 0)scale(0.996264)" xlink:href="#CMR17-74"/>
     <use transform="translate(311.353649 0)scale(0.996264)" xlink:href="#CMR17-72"/>
     <use transform="translate(346.634417 0)scale(0.996264)" xlink:href="#CMR17-69"/>
     <use transform="translate(371.505475 0)scale(0.996264)" xlink:href="#CMR17-6b"/>
     <use transform="translate(417.195937 0)scale(0.996264)" xlink:href="#CMR17-65"/>
     <use transform="translate(487.757564 0)scale(0.996264)" xlink:href="#CMR17-70"/>
     <use transform="translate(541.255372 0)scale(0.996264)" xlink:href="#CMR17-6f"/>
     <use transform="translate(586.945849 0)scale(0.996264)" xlink:href="#CMR17-69"/>
     <use transform="translate(611.816908 0)scale(0.996264)" xlink:href="#CMR17-6e"/>
     <use transform="translate(660.109824 0)scale(0.996264)" xlink:href="#CMR17-74"/>
    </g>
   </g>
   <g id="text_18">
    <!-- Outer strike point -->
    <g style="fill:#1f77b4;" transform="translate(343.97288 69.266032)scale(0.12 -0.12)">
     <defs>
      <path d="M 4307 2135 
C 4307 3437 3366 4416 2304 4416 
C 1216 4416 294 3424 294 2135 
C 294 845 1229 -128 2298 -128 
C 3392 -128 4307 864 4307 2135 
z
M 2304 -13 
C 1574 -13 781 711 781 2217 
C 781 3716 1651 4301 2298 4301 
C 2976 4301 3821 3698 3821 2217 
C 3821 686 3008 -13 2304 -13 
z
" id="CMR17-4f" transform="scale(0.015625)"/>
     </defs>
     <use transform="scale(0.996264)" xlink:href="#CMR17-4f"/>
     <use transform="translate(71.714788 0)scale(0.996264)" xlink:href="#CMR17-75"/>
     <use transform="translate(122.610158 0)scale(0.996264)" xlink:href="#CMR17-74"/>
     <use transform="translate(157.890926 0)scale(0.996264)" xlink:href="#CMR17-65"/>
     <use transform="translate(198.376586 0)scale(0.996264)" xlink:href="#CMR17-72"/>
     <use transform="translate(263.733321 0)scale(0.996264)" xlink:href="#CMR17-73"/>
     <use transform="translate(299.534658 0)scale(0.996264)" xlink:href="#CMR17-74"/>
     <use transform="translate(334.815426 0)scale(0.996264)" xlink:href="#CMR17-72"/>
     <use transform="translate(370.096194 0)scale(0.996264)" xlink:href="#CMR17-69"/>
     <use transform="translate(394.967252 0)scale(0.996264)" xlink:href="#CMR17-6b"/>
     <use transform="translate(440.657714 0)scale(0.996264)" xlink:href="#CMR17-65"/>
     <use transform="translate(511.219341 0)scale(0.996264)" xlink:href="#CMR17-70"/>
     <use transform="translate(564.71715 0)scale(0.996264)" xlink:href="#CMR17-6f"/>
     <use transform="translate(610.407627 0)scale(0.996264)" xlink:href="#CMR17-69"/>
     <use transform="translate(635.278685 0)scale(0.996264)" xlink:href="#CMR17-6e"/>
     <use transform="translate(683.571601 0)scale(0.996264)" xlink:href="#CMR17-74"/>
    </g>
   </g>
   <g id="text_19">
    <!-- Private zone -->
    <g style="fill:#ff7f0e;" transform="translate(343.97288 101.480136)scale(0.12 -0.12)">
     <defs>
      <path d="M 2310 2605 
C 2362 2670 2362 2682 2362 2695 
C 2362 2752 2336 2752 2221 2752 
L 275 2752 
L 211 1760 
L 326 1760 
C 371 2381 442 2650 1178 2650 
L 1958 2650 
L 128 96 
C 128 0 134 0 269 0 
L 2291 0 
L 2381 1152 
L 2266 1152 
C 2214 442 2131 115 1350 115 
L 531 115 
L 2310 2605 
z
" id="CMR17-7a" transform="scale(0.015625)"/>
     </defs>
     <use transform="scale(0.996264)" xlink:href="#CMR17-50"/>
     <use transform="translate(62.586301 0)scale(0.996264)" xlink:href="#CMR17-72"/>
     <use transform="translate(97.867068 0)scale(0.996264)" xlink:href="#CMR17-69"/>
     <use transform="translate(122.738127 0)scale(0.996264)" xlink:href="#CMR17-76"/>
     <use transform="translate(165.826226 0)scale(0.996264)" xlink:href="#CMR17-61"/>
     <use transform="translate(211.516703 0)scale(0.996264)" xlink:href="#CMR17-74"/>
     <use transform="translate(246.797471 0)scale(0.996264)" xlink:href="#CMR17-65"/>
     <use transform="translate(317.359098 0)scale(0.996264)" xlink:href="#CMR17-7a"/>
     <use transform="translate(357.844758 0)scale(0.996264)" xlink:href="#CMR17-6f"/>
     <use transform="translate(403.535235 0)scale(0.996264)" xlink:href="#CMR17-6e"/>
     <use transform="translate(454.430605 0)scale(0.996264)" xlink:href="#CMR17-65"/>
    </g>
   </g>
  </g>
 </g>
 <defs>
  <clipPath id="p63531c5b59">
   <rect height="144.687514" width="402.939629" x="41.768158" y="24.26218"/>
  </clipPath>
 </defs>
</svg>
