<?xml version="1.0" encoding="utf-8" standalone="no"?>
<!DOCTYPE svg PUBLIC "-//W3C//DTD SVG 1.1//EN"
  "http://www.w3.org/Graphics/SVG/1.1/DTD/svg11.dtd">
<svg height="180pt" version="1.1" viewBox="0 0 460.8 180" width="460.8pt" xmlns="http://www.w3.org/2000/svg" xmlns:xlink="http://www.w3.org/1999/xlink">
 <metadata>
  <rdf:RDF xmlns:cc="http://creativecommons.org/ns#" xmlns:dc="http://purl.org/dc/elements/1.1/" xmlns:rdf="http://www.w3.org/1999/02/22-rdf-syntax-ns#">
   <cc:Work>
    <dc:type rdf:resource="http://purl.org/dc/dcmitype/StillImage"/>
    <dc:date>2021-06-15T10:22:11.304504</dc:date>
    <dc:format>image/svg+xml</dc:format>
    <dc:creator>
     <cc:Agent>
      <dc:title>Matplotlib v3.4.2, https://matplotlib.org/</dc:title>
     </cc:Agent>
    </dc:creator>
   </cc:Work>
  </rdf:RDF>
 </metadata>
 <defs>
  <style type="text/css">*{stroke-linecap:butt;stroke-linejoin:round;}</style>
 </defs>
 <g id="figure_1">
  <g id="patch_1">
   <path d="M 0 180 
L 460.8 180 
L 460.8 0 
L 0 0 
z
" style="fill:#ffffff;"/>
  </g>
  <g id="axes_1">
   <g id="patch_2">
    <path d="M 50.87281 133.458056 
L 440.361179 133.458056 
L 440.361179 24.26218 
L 50.87281 24.26218 
z
" style="fill:#ffffff;"/>
   </g>
   <g id="PathCollection_1">
    <defs>
     <path d="M -3 0 
L 3 0 
M 0 3 
L 0 -3 
" id="ma08da6e8b9" style="stroke:#1f77b4;stroke-width:1.5;"/>
    </defs>
    <g clip-path="url(#pf087463f2e)">
     <use style="fill:#1f77b4;stroke:#1f77b4;stroke-width:1.5;" x="109.166236" xlink:href="#ma08da6e8b9" y="74.839371"/>
     <use style="fill:#1f77b4;stroke:#1f77b4;stroke-width:1.5;" x="180.702266" xlink:href="#ma08da6e8b9" y="58.96224"/>
     <use style="fill:#1f77b4;stroke:#1f77b4;stroke-width:1.5;" x="245.616994" xlink:href="#ma08da6e8b9" y="48.421891"/>
     <use style="fill:#1f77b4;stroke:#1f77b4;stroke-width:1.5;" x="310.531723" xlink:href="#ma08da6e8b9" y="42.254203"/>
    </g>
   </g>
   <g id="PathCollection_2">
    <defs>
     <path d="M -3 0 
L 3 0 
M 0 3 
L 0 -3 
" id="m3c9fd72284" style="stroke:#ff7f0e;stroke-width:1.5;"/>
    </defs>
    <g clip-path="url(#pf087463f2e)">
     <use style="fill:#ff7f0e;stroke:#ff7f0e;stroke-width:1.5;" x="109.166236" xlink:href="#m3c9fd72284" y="66.560066"/>
     <use style="fill:#ff7f0e;stroke:#ff7f0e;stroke-width:1.5;" x="180.702266" xlink:href="#m3c9fd72284" y="48.608212"/>
     <use style="fill:#ff7f0e;stroke:#ff7f0e;stroke-width:1.5;" x="245.616994" xlink:href="#m3c9fd72284" y="36.152755"/>
     <use style="fill:#ff7f0e;stroke:#ff7f0e;stroke-width:1.5;" x="310.531723" xlink:href="#m3c9fd72284" y="27.756759"/>
    </g>
   </g>
   <g id="matplotlib.axis_1">
    <g id="xtick_1">
     <g id="line2d_1">
      <defs>
       <path d="M 0 0 
L 0 3.5 
" id="mc03247da1b" style="stroke:#000000;stroke-width:0.8;"/>
      </defs>
      <g>
       <use style="stroke:#000000;stroke-width:0.8;" x="50.87281" xlink:href="#mc03247da1b" y="133.458056"/>
      </g>
     </g>
     <g id="text_1">
      <!-- $\mathdefault{0.0}$ -->
      <g transform="translate(43.393989 148.760236)scale(0.12 -0.12)">
       <defs>
        <path d="M 2688 2025 
C 2688 2416 2682 3080 2413 3591 
C 2176 4039 1798 4198 1466 4198 
C 1158 4198 768 4058 525 3597 
C 269 3118 243 2524 243 2025 
C 243 1661 250 1106 448 619 
C 723 -39 1216 -128 1466 -128 
C 1760 -128 2208 -7 2470 600 
C 2662 1042 2688 1559 2688 2025 
z
M 1466 -26 
C 1056 -26 813 325 723 812 
C 653 1188 653 1738 653 2096 
C 653 2588 653 2997 736 3387 
C 858 3929 1216 4096 1466 4096 
C 1728 4096 2067 3923 2189 3400 
C 2272 3036 2278 2607 2278 2096 
C 2278 1680 2278 1169 2202 792 
C 2067 95 1690 -26 1466 -26 
z
" id="CMR17-30" transform="scale(0.015625)"/>
        <path d="M 1178 307 
C 1178 492 1024 619 870 619 
C 685 619 557 466 557 313 
C 557 128 710 0 864 0 
C 1050 0 1178 153 1178 307 
z
" id="CMMI12-3a" transform="scale(0.015625)"/>
       </defs>
       <use transform="scale(0.996264)" xlink:href="#CMR17-30"/>
       <use transform="translate(45.690477 0)scale(0.996264)" xlink:href="#CMMI12-3a"/>
       <use transform="translate(72.787654 0)scale(0.996264)" xlink:href="#CMR17-30"/>
      </g>
     </g>
    </g>
    <g id="xtick_2">
     <g id="line2d_2">
      <g>
       <use style="stroke:#000000;stroke-width:0.8;" x="115.787538" xlink:href="#mc03247da1b" y="133.458056"/>
      </g>
     </g>
     <g id="text_2">
      <!-- $\mathdefault{0.5}$ -->
      <g transform="translate(108.308717 148.760236)scale(0.12 -0.12)">
       <defs>
        <path d="M 730 3692 
C 794 3666 1056 3584 1325 3584 
C 1920 3584 2246 3911 2432 4100 
C 2432 4157 2432 4192 2394 4192 
C 2387 4192 2374 4192 2323 4163 
C 2099 4058 1837 3973 1517 3973 
C 1325 3973 1037 3999 723 4139 
C 653 4171 640 4171 634 4171 
C 602 4171 595 4164 595 4037 
L 595 2203 
C 595 2089 595 2057 659 2057 
C 691 2057 704 2070 736 2114 
C 941 2401 1222 2522 1542 2522 
C 1766 2522 2246 2382 2246 1289 
C 2246 1085 2246 715 2054 421 
C 1894 159 1645 25 1370 25 
C 947 25 518 320 403 814 
C 429 807 480 795 506 795 
C 589 795 749 840 749 1038 
C 749 1210 627 1280 506 1280 
C 358 1280 262 1190 262 1011 
C 262 454 704 -128 1382 -128 
C 2042 -128 2669 440 2669 1264 
C 2669 2030 2170 2624 1549 2624 
C 1222 2624 947 2503 730 2274 
L 730 3692 
z
" id="CMR17-35" transform="scale(0.015625)"/>
       </defs>
       <use transform="scale(0.996264)" xlink:href="#CMR17-30"/>
       <use transform="translate(45.690477 0)scale(0.996264)" xlink:href="#CMMI12-3a"/>
       <use transform="translate(72.787654 0)scale(0.996264)" xlink:href="#CMR17-35"/>
      </g>
     </g>
    </g>
    <g id="xtick_3">
     <g id="line2d_3">
      <g>
       <use style="stroke:#000000;stroke-width:0.8;" x="180.702266" xlink:href="#mc03247da1b" y="133.458056"/>
      </g>
     </g>
     <g id="text_3">
      <!-- $\mathdefault{1.0}$ -->
      <g transform="translate(173.223445 148.760236)scale(0.12 -0.12)">
       <defs>
        <path d="M 1702 4058 
C 1702 4192 1696 4192 1606 4192 
C 1357 3916 979 3827 621 3827 
C 602 3827 570 3827 563 3808 
C 557 3795 557 3782 557 3648 
C 755 3648 1088 3686 1344 3839 
L 1344 461 
C 1344 236 1331 160 781 160 
L 589 160 
L 589 0 
C 896 0 1216 0 1523 0 
C 1830 0 2150 0 2458 0 
L 2458 160 
L 2266 160 
C 1715 160 1702 230 1702 458 
L 1702 4058 
z
" id="CMR17-31" transform="scale(0.015625)"/>
       </defs>
       <use transform="scale(0.996264)" xlink:href="#CMR17-31"/>
       <use transform="translate(45.690477 0)scale(0.996264)" xlink:href="#CMMI12-3a"/>
       <use transform="translate(72.787654 0)scale(0.996264)" xlink:href="#CMR17-30"/>
      </g>
     </g>
    </g>
    <g id="xtick_4">
     <g id="line2d_4">
      <g>
       <use style="stroke:#000000;stroke-width:0.8;" x="245.616994" xlink:href="#mc03247da1b" y="133.458056"/>
      </g>
     </g>
     <g id="text_4">
      <!-- $\mathdefault{1.5}$ -->
      <g transform="translate(238.138174 148.760236)scale(0.12 -0.12)">
       <use transform="scale(0.996264)" xlink:href="#CMR17-31"/>
       <use transform="translate(45.690477 0)scale(0.996264)" xlink:href="#CMMI12-3a"/>
       <use transform="translate(72.787654 0)scale(0.996264)" xlink:href="#CMR17-35"/>
      </g>
     </g>
    </g>
    <g id="xtick_5">
     <g id="line2d_5">
      <g>
       <use style="stroke:#000000;stroke-width:0.8;" x="310.531723" xlink:href="#mc03247da1b" y="133.458056"/>
      </g>
     </g>
     <g id="text_5">
      <!-- $\mathdefault{2.0}$ -->
      <g transform="translate(303.052902 148.760236)scale(0.12 -0.12)">
       <defs>
        <path d="M 2669 989 
L 2554 989 
C 2490 536 2438 459 2413 420 
C 2381 369 1920 369 1830 369 
L 602 369 
C 832 619 1280 1072 1824 1597 
C 2214 1967 2669 2402 2669 3035 
C 2669 3790 2067 4224 1395 4224 
C 691 4224 262 3604 262 3030 
C 262 2780 448 2748 525 2748 
C 589 2748 781 2787 781 3010 
C 781 3207 614 3264 525 3264 
C 486 3264 448 3258 422 3245 
C 544 3790 915 4058 1306 4058 
C 1862 4058 2227 3617 2227 3035 
C 2227 2479 1901 2000 1536 1584 
L 262 146 
L 262 0 
L 2515 0 
L 2669 989 
z
" id="CMR17-32" transform="scale(0.015625)"/>
       </defs>
       <use transform="scale(0.996264)" xlink:href="#CMR17-32"/>
       <use transform="translate(45.690477 0)scale(0.996264)" xlink:href="#CMMI12-3a"/>
       <use transform="translate(72.787654 0)scale(0.996264)" xlink:href="#CMR17-30"/>
      </g>
     </g>
    </g>
    <g id="xtick_6">
     <g id="line2d_6">
      <g>
       <use style="stroke:#000000;stroke-width:0.8;" x="375.446451" xlink:href="#mc03247da1b" y="133.458056"/>
      </g>
     </g>
     <g id="text_6">
      <!-- $\mathdefault{2.5}$ -->
      <g transform="translate(367.96763 148.760236)scale(0.12 -0.12)">
       <use transform="scale(0.996264)" xlink:href="#CMR17-32"/>
       <use transform="translate(45.690477 0)scale(0.996264)" xlink:href="#CMMI12-3a"/>
       <use transform="translate(72.787654 0)scale(0.996264)" xlink:href="#CMR17-35"/>
      </g>
     </g>
    </g>
    <g id="xtick_7">
     <g id="line2d_7">
      <g>
       <use style="stroke:#000000;stroke-width:0.8;" x="440.361179" xlink:href="#mc03247da1b" y="133.458056"/>
      </g>
     </g>
     <g id="text_7">
      <!-- $\mathdefault{3.0}$ -->
      <g transform="translate(432.882358 148.760236)scale(0.12 -0.12)">
       <defs>
        <path d="M 1414 2157 
C 1984 2157 2234 1662 2234 1090 
C 2234 320 1824 25 1453 25 
C 1114 25 563 194 390 693 
C 422 680 454 680 486 680 
C 640 680 755 782 755 948 
C 755 1133 614 1216 486 1216 
C 378 1216 211 1165 211 926 
C 211 335 787 -128 1466 -128 
C 2176 -128 2720 430 2720 1085 
C 2720 1707 2208 2157 1600 2227 
C 2086 2328 2554 2756 2554 3329 
C 2554 3820 2048 4179 1472 4179 
C 890 4179 378 3829 378 3329 
C 378 3110 544 3072 627 3072 
C 762 3072 877 3155 877 3321 
C 877 3486 762 3569 627 3569 
C 602 3569 570 3569 544 3557 
C 730 3959 1235 4032 1459 4032 
C 1683 4032 2106 3925 2106 3320 
C 2106 3143 2080 2828 1862 2550 
C 1670 2304 1453 2304 1242 2284 
C 1210 2284 1062 2269 1037 2269 
C 992 2263 966 2257 966 2208 
C 966 2163 973 2157 1101 2157 
L 1414 2157 
z
" id="CMR17-33" transform="scale(0.015625)"/>
       </defs>
       <use transform="scale(0.996264)" xlink:href="#CMR17-33"/>
       <use transform="translate(45.690477 0)scale(0.996264)" xlink:href="#CMMI12-3a"/>
       <use transform="translate(72.787654 0)scale(0.996264)" xlink:href="#CMR17-30"/>
      </g>
     </g>
    </g>
    <g id="text_8">
     <!-- Input power (MW) -->
     <g transform="translate(196.523135 164.051208)scale(0.12 -0.12)">
      <defs>
       <path d="M 1261 3905 
C 1261 4192 1338 4192 1798 4192 
L 1798 4352 
C 1594 4352 1267 4352 1050 4352 
C 832 4352 506 4352 301 4352 
L 301 4192 
C 762 4192 838 4192 838 3905 
L 838 447 
C 838 160 762 160 301 160 
L 301 0 
C 506 0 832 0 1050 0 
C 1267 0 1594 0 1798 0 
L 1798 160 
C 1338 160 1261 160 1261 447 
L 1261 3905 
z
" id="CMR17-49" transform="scale(0.015625)"/>
       <path d="M 2656 1933 
C 2656 2259 2592 2790 1837 2790 
C 1331 2790 1069 2400 973 2144 
L 966 2144 
L 966 2790 
L 211 2720 
L 211 2554 
C 589 2554 646 2515 646 2208 
L 646 428 
C 646 184 621 153 211 153 
L 211 -13 
C 365 0 646 0 813 0 
C 979 0 1267 0 1421 -13 
L 1421 153 
C 1011 153 986 178 986 428 
L 986 1658 
C 986 2247 1344 2688 1792 2688 
C 2266 2688 2317 2266 2317 1958 
L 2317 428 
C 2317 184 2291 153 1882 153 
L 1882 -13 
C 2035 0 2317 0 2483 0 
C 2650 0 2938 0 3091 -13 
L 3091 153 
C 2682 153 2656 178 2656 428 
L 2656 1933 
z
" id="CMR17-6e" transform="scale(0.015625)"/>
       <path d="M 1408 -1063 
C 998 -1063 973 -1037 973 -789 
L 973 402 
C 1158 134 1427 -38 1766 -38 
C 2406 -38 3053 523 3053 1388 
C 3053 2191 2496 2802 1837 2802 
C 1453 2802 1139 2592 960 2338 
L 960 2802 
L 198 2732 
L 198 2567 
C 576 2567 634 2528 634 2223 
L 634 -789 
C 634 -1031 608 -1063 198 -1063 
L 198 -1228 
C 352 -1216 634 -1216 800 -1216 
C 966 -1216 1254 -1216 1408 -1228 
L 1408 -1063 
z
M 973 2012 
C 973 2102 973 2235 1222 2471 
C 1254 2497 1472 2688 1792 2688 
C 2259 2688 2643 2108 2643 1382 
C 2643 656 2234 64 1728 64 
C 1498 64 1248 172 1056 472 
C 973 612 973 650 973 752 
L 973 2012 
z
" id="CMR17-70" transform="scale(0.015625)"/>
       <path d="M 1882 2693 
L 1882 2528 
C 2259 2528 2317 2489 2317 2186 
L 2317 1032 
C 2317 500 2029 38 1555 38 
C 1030 38 986 348 986 678 
L 986 2763 
L 211 2693 
L 211 2528 
C 467 2528 640 2528 646 2274 
L 646 1058 
C 646 633 646 361 813 183 
C 896 101 1056 -64 1517 -64 
C 2061 -64 2272 377 2323 506 
L 2330 506 
L 2330 -63 
L 3091 -63 
L 3091 128 
C 2714 128 2656 166 2656 473 
L 2656 2763 
L 1882 2693 
z
" id="CMR17-75" transform="scale(0.015625)"/>
       <path d="M 966 2560 
L 1862 2560 
L 1862 2725 
L 966 2725 
L 966 3904 
L 851 3904 
C 838 3245 614 2668 70 2668 
L 70 2560 
L 627 2560 
L 627 771 
C 627 650 627 -64 1370 -64 
C 1747 -64 1965 306 1965 777 
L 1965 1140 
L 1850 1140 
L 1850 783 
C 1850 344 1677 51 1408 51 
C 1222 51 966 178 966 758 
L 966 2560 
z
" id="CMR17-74" transform="scale(0.015625)"/>
       <path d="M 2758 1356 
C 2758 2176 2163 2816 1466 2816 
C 768 2816 173 2176 173 1356 
C 173 551 768 -64 1466 -64 
C 2163 -64 2758 551 2758 1356 
z
M 1466 51 
C 1165 51 909 230 762 480 
C 602 767 582 1126 582 1408 
C 582 1677 595 2010 762 2298 
C 890 2509 1139 2714 1466 2714 
C 1754 2714 1997 2554 2150 2330 
C 2349 2029 2349 1607 2349 1408 
C 2349 1158 2336 775 2163 467 
C 1984 173 1709 51 1466 51 
z
" id="CMR17-6f" transform="scale(0.015625)"/>
       <path d="M 3725 2183 
C 3853 2560 4109 2560 4205 2560 
L 4205 2732 
C 4077 2732 3949 2732 3821 2732 
C 3699 2732 3424 2732 3315 2738 
L 3315 2560 
C 3514 2560 3622 2445 3622 2286 
C 3622 2241 3610 2184 3597 2140 
L 2995 407 
L 2342 2275 
C 2330 2319 2310 2370 2310 2395 
C 2310 2560 2528 2560 2630 2560 
L 2630 2738 
C 2483 2732 2214 2732 2061 2732 
C 1901 2732 1734 2732 1587 2738 
L 1587 2560 
C 1939 2560 1939 2547 2074 2149 
L 1485 451 
L 851 2281 
C 819 2363 819 2376 819 2395 
C 819 2560 1037 2560 1139 2560 
L 1139 2738 
C 986 2732 717 2732 557 2732 
C 416 2732 198 2732 64 2738 
L 64 2560 
C 346 2560 416 2541 486 2331 
L 1274 49 
C 1299 -33 1318 -52 1370 -52 
C 1414 -52 1440 -39 1472 56 
L 2131 1980 
L 2797 56 
C 2829 -39 2854 -52 2899 -52 
C 2950 -52 2970 -33 2995 50 
L 3725 2183 
z
" id="CMR17-77" transform="scale(0.015625)"/>
       <path d="M 2438 1472 
C 2464 1498 2464 1511 2464 1576 
C 2464 2238 2118 2816 1389 2816 
C 710 2816 173 2169 173 1383 
C 173 551 781 -64 1459 -64 
C 2176 -64 2458 607 2458 740 
C 2458 784 2419 784 2406 784 
C 2362 784 2355 771 2330 696 
C 2189 265 1837 51 1504 51 
C 1229 51 954 203 781 480 
C 582 803 582 1176 582 1472 
L 2438 1472 
z
M 589 1568 
C 634 2505 1126 2714 1382 2714 
C 1818 2714 2112 2297 2118 1568 
L 589 1568 
z
" id="CMR17-65" transform="scale(0.015625)"/>
       <path d="M 960 1497 
C 960 2112 1222 2688 1702 2688 
C 1747 2688 1792 2682 1837 2662 
C 1837 2662 1696 2617 1696 2452 
C 1696 2298 1818 2234 1914 2234 
C 1990 2234 2131 2279 2131 2458 
C 2131 2663 1926 2790 1709 2790 
C 1222 2790 1011 2317 947 2093 
L 941 2093 
L 941 2790 
L 198 2720 
L 198 2554 
C 576 2554 634 2515 634 2208 
L 634 428 
C 634 184 608 153 198 153 
L 198 -13 
C 352 0 646 0 813 0 
C 998 0 1325 0 1498 -13 
L 1498 153 
C 1037 153 960 153 960 440 
L 960 1497 
z
" id="CMR17-72" transform="scale(0.015625)"/>
       <path d="M 1958 -1561 
C 1958 -1555 1958 -1542 1939 -1523 
C 1645 -1224 858 -407 858 1581 
C 858 3569 1632 4379 1946 4697 
C 1946 4704 1958 4717 1958 4736 
C 1958 4755 1939 4768 1914 4768 
C 1843 4768 1299 4296 986 3594 
C 666 2887 576 2199 576 1588 
C 576 1128 621 351 1005 -471 
C 1312 -1135 1837 -1600 1914 -1600 
C 1946 -1600 1958 -1587 1958 -1561 
z
" id="CMR17-28" transform="scale(0.015625)"/>
       <path d="M 1338 4224 
C 1299 4320 1293 4320 1158 4320 
L 339 4320 
L 339 4160 
C 781 4160 851 4160 851 3875 
L 851 610 
C 851 451 851 153 339 153 
L 339 -13 
C 486 0 755 0 915 0 
C 1075 0 1344 0 1491 -13 
L 1491 153 
C 979 153 979 451 979 610 
L 979 4135 
L 986 4135 
L 2490 89 
C 2515 25 2528 -13 2579 -13 
C 2630 -13 2643 25 2669 89 
L 4186 4166 
L 4192 4166 
L 4192 438 
C 4192 153 4122 153 3680 153 
L 3680 -13 
C 3853 0 4198 0 4384 0 
C 4570 0 4922 0 5094 -13 
L 5094 153 
C 4653 153 4582 153 4582 438 
L 4582 3875 
C 4582 4160 4653 4160 5094 4160 
L 5094 4320 
L 4282 4320 
C 4147 4320 4141 4314 4102 4218 
L 2720 502 
L 1338 4224 
z
" id="CMR17-4d" transform="scale(0.015625)"/>
       <path d="M 5523 3764 
C 5581 3936 5677 4160 6048 4160 
L 6048 4326 
C 5939 4326 5715 4326 5600 4326 
C 5440 4326 5158 4326 5005 4332 
L 5005 4160 
C 5293 4160 5414 4000 5414 3847 
C 5414 3802 5408 3777 5382 3707 
L 4390 555 
L 3347 3873 
C 3328 3937 3322 3963 3322 3988 
C 3322 4160 3603 4160 3725 4160 
L 3725 4326 
C 3539 4326 3219 4326 3021 4326 
C 2861 4326 2573 4326 2426 4332 
L 2426 4160 
C 2720 4160 2797 4141 2861 4027 
C 2886 3969 2989 3638 2989 3619 
C 2989 3593 2976 3555 2970 3536 
L 2029 561 
L 986 3867 
C 954 3957 954 3969 954 3982 
C 954 4160 1235 4160 1363 4160 
L 1363 4326 
C 1178 4326 858 4326 659 4326 
C 493 4326 211 4326 58 4332 
L 58 4160 
C 442 4160 467 4122 531 3918 
L 1779 -20 
C 1811 -115 1811 -128 1869 -128 
C 1920 -128 1939 -115 1965 -26 
L 3053 3433 
L 4141 -26 
C 4166 -115 4186 -128 4237 -128 
C 4294 -128 4294 -115 4326 -20 
L 5523 3764 
z
" id="CMR17-57" transform="scale(0.015625)"/>
       <path d="M 1683 1581 
C 1683 2040 1638 2817 1254 3639 
C 947 4303 422 4768 346 4768 
C 326 4768 301 4761 301 4729 
C 301 4717 307 4710 314 4697 
C 621 4378 1402 3568 1402 1584 
C 1402 -407 627 -1217 314 -1537 
C 307 -1549 301 -1556 301 -1568 
C 301 -1600 326 -1600 346 -1600 
C 416 -1600 960 -1128 1274 -426 
C 1594 281 1683 969 1683 1581 
z
" id="CMR17-29" transform="scale(0.015625)"/>
      </defs>
      <use transform="scale(0.996264)" xlink:href="#CMR17-49"/>
      <use transform="translate(32.638409 0)scale(0.996264)" xlink:href="#CMR17-6e"/>
      <use transform="translate(83.533779 0)scale(0.996264)" xlink:href="#CMR17-70"/>
      <use transform="translate(134.429149 0)scale(0.996264)" xlink:href="#CMR17-75"/>
      <use transform="translate(185.324519 0)scale(0.996264)" xlink:href="#CMR17-74"/>
      <use transform="translate(250.681253 0)scale(0.996264)" xlink:href="#CMR17-70"/>
      <use transform="translate(304.179061 0)scale(0.996264)" xlink:href="#CMR17-6f"/>
      <use transform="translate(347.267084 0)scale(0.996264)" xlink:href="#CMR17-77"/>
      <use transform="translate(411.174511 0)scale(0.996264)" xlink:href="#CMR17-65"/>
      <use transform="translate(451.660171 0)scale(0.996264)" xlink:href="#CMR17-72"/>
      <use transform="translate(517.016906 0)scale(0.996264)" xlink:href="#CMR17-28"/>
      <use transform="translate(552.297673 0)scale(0.996264)" xlink:href="#CMR17-4d"/>
      <use transform="translate(636.984614 0)scale(0.996264)" xlink:href="#CMR17-57"/>
      <use transform="translate(732.081264 0)scale(0.996264)" xlink:href="#CMR17-29"/>
     </g>
    </g>
   </g>
   <g id="matplotlib.axis_2">
    <g id="ytick_1">
     <g id="line2d_8">
      <defs>
       <path d="M 0 0 
L -3.5 0 
" id="m54507a2fb0" style="stroke:#000000;stroke-width:0.8;"/>
      </defs>
      <g>
       <use style="stroke:#000000;stroke-width:0.8;" x="50.87281" xlink:href="#m54507a2fb0" y="133.458056"/>
      </g>
     </g>
     <g id="text_9">
      <!-- $\mathdefault{0.0}$ -->
      <g transform="translate(28.915168 137.609146)scale(0.12 -0.12)">
       <use transform="scale(0.996264)" xlink:href="#CMR17-30"/>
       <use transform="translate(45.690477 0)scale(0.996264)" xlink:href="#CMMI12-3a"/>
       <use transform="translate(72.787654 0)scale(0.996264)" xlink:href="#CMR17-30"/>
      </g>
     </g>
    </g>
    <g id="ytick_2">
     <g id="line2d_9">
      <g>
       <use style="stroke:#000000;stroke-width:0.8;" x="50.87281" xlink:href="#m54507a2fb0" y="104.722299"/>
      </g>
     </g>
     <g id="text_10">
      <!-- $\mathdefault{0.5}$ -->
      <g transform="translate(28.915168 108.873389)scale(0.12 -0.12)">
       <use transform="scale(0.996264)" xlink:href="#CMR17-30"/>
       <use transform="translate(45.690477 0)scale(0.996264)" xlink:href="#CMMI12-3a"/>
       <use transform="translate(72.787654 0)scale(0.996264)" xlink:href="#CMR17-35"/>
      </g>
     </g>
    </g>
    <g id="ytick_3">
     <g id="line2d_10">
      <g>
       <use style="stroke:#000000;stroke-width:0.8;" x="50.87281" xlink:href="#m54507a2fb0" y="75.986542"/>
      </g>
     </g>
     <g id="text_11">
      <!-- $\mathdefault{1.0}$ -->
      <g transform="translate(28.915168 80.137632)scale(0.12 -0.12)">
       <use transform="scale(0.996264)" xlink:href="#CMR17-31"/>
       <use transform="translate(45.690477 0)scale(0.996264)" xlink:href="#CMMI12-3a"/>
       <use transform="translate(72.787654 0)scale(0.996264)" xlink:href="#CMR17-30"/>
      </g>
     </g>
    </g>
    <g id="ytick_4">
     <g id="line2d_11">
      <g>
       <use style="stroke:#000000;stroke-width:0.8;" x="50.87281" xlink:href="#m54507a2fb0" y="47.250785"/>
      </g>
     </g>
     <g id="text_12">
      <!-- $\mathdefault{1.5}$ -->
      <g transform="translate(28.915168 51.401875)scale(0.12 -0.12)">
       <use transform="scale(0.996264)" xlink:href="#CMR17-31"/>
       <use transform="translate(45.690477 0)scale(0.996264)" xlink:href="#CMMI12-3a"/>
       <use transform="translate(72.787654 0)scale(0.996264)" xlink:href="#CMR17-35"/>
      </g>
     </g>
    </g>
    <g id="text_13">
     <!-- Divertor H inventory (H) -->
     <g transform="translate(21.926376 143.319119)rotate(-90)scale(0.12 -0.12)">
      <defs>
       <path d="M 333 4352 
L 333 4186 
C 774 4186 845 4186 845 3900 
L 845 452 
C 845 166 774 166 333 166 
L 333 0 
L 2368 0 
C 3398 0 4224 943 4224 2141 
C 4224 3346 3411 4352 2368 4352 
L 333 4352 
z
M 1523 166 
C 1267 166 1254 197 1254 414 
L 1254 3938 
C 1254 4155 1267 4186 1523 4186 
L 2240 4186 
C 2771 4186 3750 3874 3750 2141 
C 3750 1242 3488 879 3366 707 
C 3213 510 2848 166 2240 166 
L 1523 166 
z
" id="CMR17-44" transform="scale(0.015625)"/>
       <path d="M 992 3909 
C 992 4049 877 4170 730 4170 
C 589 4170 467 4056 467 3909 
C 467 3769 582 3648 730 3648 
C 870 3648 992 3763 992 3909 
z
M 243 2706 
L 243 2541 
C 602 2541 653 2502 653 2197 
L 653 427 
C 653 184 627 153 218 153 
L 218 -13 
C 371 0 646 0 806 0 
C 960 0 1222 0 1370 -13 
L 1370 153 
C 992 153 979 191 979 420 
L 979 2776 
L 243 2706 
z
" id="CMR17-69" transform="scale(0.015625)"/>
       <path d="M 2502 2163 
C 2560 2304 2662 2560 3034 2560 
L 3034 2726 
C 2912 2726 2752 2726 2630 2726 
C 2496 2726 2285 2726 2157 2732 
L 2157 2566 
C 2317 2553 2406 2477 2406 2311 
C 2406 2253 2406 2240 2368 2151 
L 1664 377 
L 902 2286 
C 864 2369 864 2381 864 2407 
C 864 2560 1075 2560 1171 2560 
L 1171 2732 
C 1018 2726 736 2726 576 2726 
C 403 2726 205 2726 64 2732 
L 64 2560 
C 307 2560 442 2560 518 2362 
L 1446 44 
C 1485 -51 1491 -64 1549 -64 
C 1606 -64 1613 -51 1651 44 
L 2502 2163 
z
" id="CMR17-76" transform="scale(0.015625)"/>
       <path d="M 3590 3905 
C 3590 4192 3661 4192 4102 4192 
L 4102 4352 
C 3917 4352 3578 4352 3379 4352 
C 3181 4352 2842 4352 2656 4352 
L 2656 4192 
C 3098 4192 3168 4192 3168 3904 
L 3168 2341 
L 1261 2341 
L 1261 3904 
C 1261 4192 1331 4192 1773 4192 
L 1773 4352 
C 1587 4352 1248 4352 1050 4352 
C 851 4352 512 4352 326 4352 
L 326 4192 
C 768 4192 838 4192 838 3905 
L 838 447 
C 838 160 768 160 326 160 
L 326 0 
C 512 0 851 0 1050 0 
C 1248 0 1587 0 1773 0 
L 1773 160 
C 1331 160 1261 160 1261 446 
L 1261 2176 
L 3168 2176 
L 3168 446 
C 3168 160 3098 160 2656 160 
L 2656 0 
C 2842 0 3181 0 3379 0 
C 3578 0 3917 0 4102 0 
L 4102 160 
C 3661 160 3590 160 3590 447 
L 3590 3905 
z
" id="CMR17-48" transform="scale(0.015625)"/>
       <path d="M 2496 2197 
C 2656 2586 2944 2586 3034 2586 
L 3034 2752 
C 2912 2752 2752 2752 2630 2752 
C 2496 2752 2285 2752 2157 2758 
L 2157 2592 
C 2400 2573 2406 2394 2406 2343 
C 2406 2280 2394 2248 2362 2171 
L 1664 449 
L 902 2306 
C 870 2382 870 2426 870 2433 
C 870 2573 1018 2586 1171 2586 
L 1171 2758 
C 1018 2752 742 2752 582 2752 
C 410 2752 205 2752 64 2758 
L 64 2586 
C 410 2586 448 2554 531 2350 
L 1485 15 
C 1197 -738 1030 -1178 627 -1178 
C 557 -1178 397 -1159 282 -1044 
C 429 -1031 493 -942 493 -833 
C 493 -725 416 -629 288 -629 
C 147 -629 77 -725 77 -840 
C 77 -1095 339 -1280 627 -1280 
C 998 -1280 1229 -922 1357 -604 
L 2496 2197 
z
" id="CMR17-79" transform="scale(0.015625)"/>
      </defs>
      <use transform="scale(0.996264)" xlink:href="#CMR17-44"/>
      <use transform="translate(70.393556 0)scale(0.996264)" xlink:href="#CMR17-69"/>
      <use transform="translate(95.264614 0)scale(0.996264)" xlink:href="#CMR17-76"/>
      <use transform="translate(140.955076 0)scale(0.996264)" xlink:href="#CMR17-65"/>
      <use transform="translate(181.440737 0)scale(0.996264)" xlink:href="#CMR17-72"/>
      <use transform="translate(216.721505 0)scale(0.996264)" xlink:href="#CMR17-74"/>
      <use transform="translate(252.002272 0)scale(0.996264)" xlink:href="#CMR17-6f"/>
      <use transform="translate(297.692749 0)scale(0.996264)" xlink:href="#CMR17-72"/>
      <use transform="translate(363.049484 0)scale(0.996264)" xlink:href="#CMR17-48"/>
      <use transform="translate(462.19788 0)scale(0.996264)" xlink:href="#CMR17-69"/>
      <use transform="translate(487.068938 0)scale(0.996264)" xlink:href="#CMR17-6e"/>
      <use transform="translate(535.361854 0)scale(0.996264)" xlink:href="#CMR17-76"/>
      <use transform="translate(581.052316 0)scale(0.996264)" xlink:href="#CMR17-65"/>
      <use transform="translate(621.537976 0)scale(0.996264)" xlink:href="#CMR17-6e"/>
      <use transform="translate(669.830892 0)scale(0.996264)" xlink:href="#CMR17-74"/>
      <use transform="translate(705.11166 0)scale(0.996264)" xlink:href="#CMR17-6f"/>
      <use transform="translate(750.802137 0)scale(0.996264)" xlink:href="#CMR17-72"/>
      <use transform="translate(786.082905 0)scale(0.996264)" xlink:href="#CMR17-79"/>
      <use transform="translate(864.451787 0)scale(0.996264)" xlink:href="#CMR17-28"/>
      <use transform="translate(899.732555 0)scale(0.996264)" xlink:href="#CMR17-48"/>
      <use transform="translate(968.804985 0)scale(0.996264)" xlink:href="#CMR17-29"/>
     </g>
    </g>
    <g id="text_14">
     <!-- $\times\mathdefault{10^{21}}\mathdefault{}$ -->
     <g transform="translate(50.87281 21.26218)scale(0.12 -0.12)">
      <defs>
       <path d="M 2490 1785 
L 1210 3059 
C 1133 3136 1120 3148 1069 3148 
C 1005 3148 941 3091 941 3020 
C 941 2976 954 2963 1024 2892 
L 2304 1606 
L 1024 320 
C 954 249 941 236 941 192 
C 941 121 1005 64 1069 64 
C 1120 64 1133 76 1210 153 
L 2483 1427 
L 3808 102 
C 3821 96 3866 64 3904 64 
C 3981 64 4032 121 4032 192 
C 4032 204 4032 230 4013 262 
C 4006 275 2989 1280 2669 1606 
L 3840 2777 
C 3872 2816 3968 2899 4000 2937 
C 4006 2950 4032 2976 4032 3020 
C 4032 3091 3981 3148 3904 3148 
C 3853 3148 3827 3123 3757 3052 
L 2490 1785 
z
" id="CMSY10-2" transform="scale(0.015625)"/>
      </defs>
      <use transform="scale(0.996264)" xlink:href="#CMSY10-2"/>
      <use transform="translate(77.487468 0)scale(0.996264)" xlink:href="#CMR17-31"/>
      <use transform="translate(123.177945 0)scale(0.996264)" xlink:href="#CMR17-30"/>
      <use transform="translate(168.868422 36.153639)scale(0.697382)" xlink:href="#CMR17-32"/>
      <use transform="translate(200.851604 36.153639)scale(0.697382)" xlink:href="#CMR17-31"/>
     </g>
    </g>
   </g>
   <g id="line2d_12">
    <path clip-path="url(#pf087463f2e)" d="M 109.166236 72.750533 
L 113.275736 72.082693 
L 117.385235 71.414852 
L 121.494735 70.747011 
L 125.604235 70.07917 
L 129.713734 69.41133 
L 133.823234 68.743489 
L 137.932734 68.075648 
L 142.042234 67.407808 
L 146.151733 66.739967 
L 150.261233 66.072126 
L 154.370733 65.404285 
L 158.480233 64.736445 
L 162.589732 64.068604 
L 166.699232 63.400763 
L 170.808732 62.732922 
L 174.918232 62.065082 
L 179.027731 61.397241 
L 183.137231 60.7294 
L 187.246731 60.061559 
L 191.35623 59.393719 
L 195.46573 58.725878 
L 199.57523 58.058037 
L 203.68473 57.390197 
L 207.794229 56.722356 
L 211.903729 56.054515 
L 216.013229 55.386674 
L 220.122729 54.718834 
L 224.232228 54.050993 
L 228.341728 53.383152 
L 232.451228 52.715311 
L 236.560728 52.047471 
L 240.670227 51.37963 
L 244.779727 50.711789 
L 248.889227 50.043948 
L 252.998726 49.376108 
L 257.108226 48.708267 
L 261.217726 48.040426 
L 265.327226 47.372586 
L 269.436725 46.704745 
L 273.546225 46.036904 
L 277.655725 45.369063 
L 281.765225 44.701223 
L 285.874724 44.033382 
L 289.984224 43.365541 
L 294.093724 42.6977 
L 298.203224 42.02986 
L 302.312723 41.362019 
L 306.422223 40.694178 
L 310.531723 40.026337 
" style="fill:none;stroke:#1f77b4;stroke-dasharray:5.55,2.4;stroke-dashoffset:0;stroke-width:1.5;"/>
   </g>
   <g id="line2d_13">
    <path clip-path="url(#pf087463f2e)" d="M 109.166236 64.544764 
L 113.275736 63.750664 
L 117.385235 62.956564 
L 121.494735 62.162464 
L 125.604235 61.368364 
L 129.713734 60.574264 
L 133.823234 59.780164 
L 137.932734 58.986064 
L 142.042234 58.191964 
L 146.151733 57.397864 
L 150.261233 56.603764 
L 154.370733 55.809665 
L 158.480233 55.015565 
L 162.589732 54.221465 
L 166.699232 53.427365 
L 170.808732 52.633265 
L 174.918232 51.839165 
L 179.027731 51.045065 
L 183.137231 50.250965 
L 187.246731 49.456865 
L 191.35623 48.662765 
L 195.46573 47.868665 
L 199.57523 47.074565 
L 203.68473 46.280465 
L 207.794229 45.486365 
L 211.903729 44.692265 
L 216.013229 43.898166 
L 220.122729 43.104066 
L 224.232228 42.309966 
L 228.341728 41.515866 
L 232.451228 40.721766 
L 236.560728 39.927666 
L 240.670227 39.133566 
L 244.779727 38.339466 
L 248.889227 37.545366 
L 252.998726 36.751266 
L 257.108226 35.957166 
L 261.217726 35.163066 
L 265.327226 34.368966 
L 269.436725 33.574866 
L 273.546225 32.780767 
L 277.655725 31.986667 
L 281.765225 31.192567 
L 285.874724 30.398467 
L 289.984224 29.604367 
L 294.093724 28.810267 
L 298.203224 28.016167 
L 302.312723 27.222067 
L 306.422223 26.427967 
L 310.531723 25.633867 
" style="fill:none;stroke:#ff7f0e;stroke-dasharray:5.55,2.4;stroke-dashoffset:0;stroke-width:1.5;"/>
   </g>
   <g id="patch_3">
    <path d="M 50.87281 133.458056 
L 50.87281 24.26218 
" style="fill:none;stroke:#000000;stroke-linecap:square;stroke-linejoin:miter;stroke-width:0.8;"/>
   </g>
   <g id="patch_4">
    <path d="M 440.361179 133.458056 
L 440.361179 24.26218 
" style="fill:none;stroke:#000000;stroke-linecap:square;stroke-linejoin:miter;stroke-width:0.8;"/>
   </g>
   <g id="patch_5">
    <path d="M 50.87281 133.458056 
L 440.361179 133.458056 
" style="fill:none;stroke:#000000;stroke-linecap:square;stroke-linejoin:miter;stroke-width:0.8;"/>
   </g>
   <g id="patch_6">
    <path d="M 50.87281 24.26218 
L 440.361179 24.26218 
" style="fill:none;stroke:#000000;stroke-linecap:square;stroke-linejoin:miter;stroke-width:0.8;"/>
   </g>
   <g id="text_15">
    <!-- 3.7e+20$\times IP + $8.9e+20 -->
    <g style="fill:#1f77b4;" transform="translate(317.023196 42.254203)scale(0.12 -0.12)">
     <defs>
      <path d="M 1062 261 
C 1062 420 934 522 800 522 
C 672 522 538 420 538 261 
C 538 102 666 0 800 0 
C 928 0 1062 102 1062 261 
z
" id="CMR17-2e" transform="scale(0.015625)"/>
      <path d="M 2886 3941 
L 2886 4081 
L 1382 4081 
C 634 4081 621 4165 595 4288 
L 480 4288 
L 294 3094 
L 410 3094 
C 429 3215 474 3540 550 3661 
C 589 3712 1062 3712 1171 3712 
L 2579 3712 
L 1869 2661 
C 1395 1954 1069 999 1069 165 
C 1069 89 1069 -128 1299 -128 
C 1530 -128 1530 89 1530 171 
L 1530 465 
C 1530 1508 1709 2196 2003 2636 
L 2886 3941 
z
" id="CMR17-37" transform="scale(0.015625)"/>
      <path d="M 2413 1472 
L 4109 1472 
C 4198 1472 4307 1472 4307 1580 
C 4307 1695 4205 1695 4109 1695 
L 2413 1695 
L 2413 3386 
C 2413 3475 2413 3584 2304 3584 
C 2189 3584 2189 3482 2189 3386 
L 2189 1695 
L 493 1695 
C 403 1695 294 1695 294 1587 
C 294 1472 397 1472 493 1472 
L 2189 1472 
L 2189 -218 
C 2189 -307 2189 -416 2298 -416 
C 2413 -416 2413 -314 2413 -218 
L 2413 1472 
z
" id="CMR17-2b" transform="scale(0.015625)"/>
      <path d="M 2355 3880 
C 2413 4103 2426 4167 2893 4167 
C 3034 4167 3085 4167 3085 4288 
C 3085 4352 3014 4352 2995 4352 
C 2880 4352 2739 4352 2624 4352 
L 1837 4352 
C 1709 4352 1562 4352 1434 4352 
C 1382 4352 1312 4352 1312 4231 
C 1312 4167 1363 4167 1491 4167 
C 1888 4167 1888 4116 1888 4046 
C 1888 4002 1875 3963 1862 3906 
L 998 472 
C 941 249 928 185 461 185 
C 320 185 262 185 262 64 
C 262 0 326 0 358 0 
C 474 0 614 0 730 0 
L 1517 0 
C 1645 0 1786 0 1914 0 
C 1965 0 2042 0 2042 115 
C 2042 185 2003 185 1862 185 
C 1466 185 1466 236 1466 312 
C 1466 325 1466 357 1491 459 
L 2355 3880 
z
" id="CMMI12-49" transform="scale(0.015625)"/>
      <path d="M 1894 2023 
L 2970 2023 
C 3853 2023 4736 2673 4736 3401 
C 4736 3898 4314 4352 3507 4352 
L 1530 4352 
C 1408 4352 1350 4352 1350 4231 
C 1350 4167 1408 4167 1504 4167 
C 1894 4167 1894 4116 1894 4046 
C 1894 4034 1894 3995 1869 3899 
L 1005 472 
C 947 249 934 185 486 185 
C 365 185 301 185 301 70 
C 301 0 358 0 397 0 
C 518 0 646 0 768 0 
L 1517 0 
C 1638 0 1773 0 1894 0 
C 1946 0 2016 0 2016 121 
C 2016 185 1958 185 1862 185 
C 1478 185 1472 230 1472 293 
C 1472 325 1478 369 1485 401 
L 1894 2023 
z
M 2355 3930 
C 2413 4167 2438 4167 2688 4167 
L 3322 4167 
C 3802 4167 4198 4013 4198 3535 
C 4198 3369 4115 2827 3821 2534 
C 3712 2419 3405 2176 2822 2176 
L 1920 2176 
L 2355 3930 
z
" id="CMMI12-50" transform="scale(0.015625)"/>
      <path d="M 1741 2264 
C 2144 2467 2554 2773 2554 3263 
C 2554 3841 1990 4179 1472 4179 
C 890 4179 378 3759 378 3180 
C 378 3021 416 2747 666 2505 
C 730 2442 998 2251 1171 2130 
C 883 1983 211 1634 211 934 
C 211 279 838 -128 1459 -128 
C 2144 -128 2720 362 2720 1010 
C 2720 1590 2330 1857 2074 2029 
L 1741 2264 
z
M 902 2822 
C 851 2854 595 3051 595 3351 
C 595 3739 998 4032 1459 4032 
C 1965 4032 2336 3676 2336 3262 
C 2336 2669 1670 2331 1638 2331 
C 1632 2331 1626 2331 1574 2370 
L 902 2822 
z
M 2080 1519 
C 2176 1449 2483 1240 2483 851 
C 2483 381 2010 25 1472 25 
C 890 25 448 438 448 940 
C 448 1443 838 1862 1280 2060 
L 2080 1519 
z
" id="CMR17-38" transform="scale(0.015625)"/>
      <path d="M 2253 1864 
C 2253 464 1670 31 1190 31 
C 1043 31 685 31 538 294 
C 704 268 826 357 826 518 
C 826 692 685 749 595 749 
C 538 749 365 723 365 506 
C 365 71 742 -128 1203 -128 
C 1939 -128 2688 674 2688 2073 
C 2688 3817 1971 4179 1485 4179 
C 851 4179 243 3628 243 2778 
C 243 1991 762 1408 1414 1408 
C 1952 1408 2189 1903 2253 2112 
L 2253 1864 
z
M 1427 1510 
C 1254 1510 1011 1542 813 1922 
C 678 2169 678 2461 678 2771 
C 678 3146 678 3405 858 3684 
C 947 3817 1114 4032 1485 4032 
C 2240 4032 2240 2885 2240 2632 
C 2240 2182 2035 1510 1427 1510 
z
" id="CMR17-39" transform="scale(0.015625)"/>
     </defs>
     <use transform="scale(0.996264)" xlink:href="#CMR17-33"/>
     <use transform="translate(45.690477 0)scale(0.996264)" xlink:href="#CMR17-2e"/>
     <use transform="translate(70.561536 0)scale(0.996264)" xlink:href="#CMR17-37"/>
     <use transform="translate(116.252013 0)scale(0.996264)" xlink:href="#CMR17-65"/>
     <use transform="translate(156.737673 0)scale(0.996264)" xlink:href="#CMR17-2b"/>
     <use transform="translate(228.452462 0)scale(0.996264)" xlink:href="#CMR17-32"/>
     <use transform="translate(274.142939 0)scale(0.996264)" xlink:href="#CMR17-30"/>
     <use transform="translate(319.833416 0)scale(0.996264)" xlink:href="#CMSY10-2"/>
     <use transform="translate(397.320883 0)scale(0.996264)" xlink:href="#CMMI12-49"/>
     <use transform="translate(448.177398 0)scale(0.996264)" xlink:href="#CMMI12-50"/>
     <use transform="translate(524.603218 0)scale(0.996264)" xlink:href="#CMR17-2b"/>
     <use transform="translate(596.318007 0)scale(0.996264)" xlink:href="#CMR17-38"/>
     <use transform="translate(642.008484 0)scale(0.996264)" xlink:href="#CMR17-2e"/>
     <use transform="translate(666.879542 0)scale(0.996264)" xlink:href="#CMR17-39"/>
     <use transform="translate(712.570019 0)scale(0.996264)" xlink:href="#CMR17-65"/>
     <use transform="translate(753.05568 0)scale(0.996264)" xlink:href="#CMR17-2b"/>
     <use transform="translate(824.770468 0)scale(0.996264)" xlink:href="#CMR17-32"/>
     <use transform="translate(870.460945 0)scale(0.996264)" xlink:href="#CMR17-30"/>
    </g>
   </g>
   <g id="text_16">
    <!-- 4.4e+20$\times IP + $1.0e+21 -->
    <g style="fill:#ff7f0e;" transform="translate(317.023196 27.756759)scale(0.12 -0.12)">
     <defs>
      <path d="M 2150 4122 
C 2150 4256 2144 4256 2029 4256 
L 128 1254 
L 128 1088 
L 1779 1088 
L 1779 457 
C 1779 224 1766 160 1318 160 
L 1197 160 
L 1197 0 
C 1402 0 1747 0 1965 0 
C 2182 0 2528 0 2733 0 
L 2733 160 
L 2611 160 
C 2163 160 2150 224 2150 457 
L 2150 1088 
L 2803 1088 
L 2803 1254 
L 2150 1254 
L 2150 4122 
z
M 1798 3703 
L 1798 1254 
L 256 1254 
L 1798 3703 
z
" id="CMR17-34" transform="scale(0.015625)"/>
     </defs>
     <use transform="scale(0.996264)" xlink:href="#CMR17-34"/>
     <use transform="translate(45.690477 0)scale(0.996264)" xlink:href="#CMR17-2e"/>
     <use transform="translate(70.561536 0)scale(0.996264)" xlink:href="#CMR17-34"/>
     <use transform="translate(116.252013 0)scale(0.996264)" xlink:href="#CMR17-65"/>
     <use transform="translate(156.737673 0)scale(0.996264)" xlink:href="#CMR17-2b"/>
     <use transform="translate(228.452462 0)scale(0.996264)" xlink:href="#CMR17-32"/>
     <use transform="translate(274.142939 0)scale(0.996264)" xlink:href="#CMR17-30"/>
     <use transform="translate(319.833416 0)scale(0.996264)" xlink:href="#CMSY10-2"/>
     <use transform="translate(397.320883 0)scale(0.996264)" xlink:href="#CMMI12-49"/>
     <use transform="translate(448.177398 0)scale(0.996264)" xlink:href="#CMMI12-50"/>
     <use transform="translate(524.603218 0)scale(0.996264)" xlink:href="#CMR17-2b"/>
     <use transform="translate(596.318007 0)scale(0.996264)" xlink:href="#CMR17-31"/>
     <use transform="translate(642.008484 0)scale(0.996264)" xlink:href="#CMR17-2e"/>
     <use transform="translate(666.879542 0)scale(0.996264)" xlink:href="#CMR17-30"/>
     <use transform="translate(712.570019 0)scale(0.996264)" xlink:href="#CMR17-65"/>
     <use transform="translate(753.05568 0)scale(0.996264)" xlink:href="#CMR17-2b"/>
     <use transform="translate(824.770468 0)scale(0.996264)" xlink:href="#CMR17-32"/>
     <use transform="translate(870.460945 0)scale(0.996264)" xlink:href="#CMR17-31"/>
    </g>
   </g>
   <g id="legend_1">
    <g id="patch_7">
     <path d="M 310.488577 127.458056 
L 431.961179 127.458056 
Q 434.361179 127.458056 434.361179 125.058056 
L 434.361179 92.808865 
Q 434.361179 90.408865 431.961179 90.408865 
L 310.488577 90.408865 
Q 308.088577 90.408865 308.088577 92.808865 
L 308.088577 125.058056 
Q 308.088577 127.458056 310.488577 127.458056 
z
" style="fill:#ffffff;opacity:0.8;stroke:#cccccc;stroke-linejoin:miter;"/>
    </g>
    <g id="PathCollection_3">
     <g>
      <use style="fill:#1f77b4;stroke:#1f77b4;stroke-width:1.5;" x="324.888577" xlink:href="#ma08da6e8b9" y="100.458865"/>
     </g>
    </g>
    <g id="text_17">
     <!-- 2.5e+21 mol s$^{-1}$ -->
     <g transform="translate(346.488577 103.608865)scale(0.12 -0.12)">
      <defs>
       <path d="M 4326 1933 
C 4326 2252 4269 2790 3507 2790 
C 3072 2790 2771 2496 2656 2151 
L 2650 2151 
C 2573 2676 2195 2790 1837 2790 
C 1331 2790 1069 2400 973 2144 
L 966 2144 
L 966 2790 
L 211 2720 
L 211 2554 
C 589 2554 646 2515 646 2208 
L 646 428 
C 646 184 621 153 211 153 
L 211 -13 
C 365 0 646 0 813 0 
C 979 0 1267 0 1421 -13 
L 1421 153 
C 1011 153 986 178 986 428 
L 986 1658 
C 986 2247 1344 2688 1792 2688 
C 2266 2688 2317 2266 2317 1958 
L 2317 428 
C 2317 184 2291 153 1882 153 
L 1882 -13 
C 2035 0 2317 0 2483 0 
C 2650 0 2938 0 3091 -13 
L 3091 153 
C 2682 153 2656 178 2656 428 
L 2656 1658 
C 2656 2247 3014 2688 3462 2688 
C 3936 2688 3987 2266 3987 1958 
L 3987 428 
C 3987 184 3962 153 3552 153 
L 3552 -13 
C 3706 0 3987 0 4154 0 
C 4320 0 4608 0 4762 -13 
L 4762 153 
C 4352 153 4326 178 4326 428 
L 4326 1933 
z
" id="CMR17-6d" transform="scale(0.015625)"/>
       <path d="M 979 4396 
L 218 4326 
L 218 4160 
C 595 4160 653 4122 653 3817 
L 653 426 
C 653 184 627 153 218 153 
L 218 -13 
C 371 0 653 0 813 0 
C 979 0 1261 0 1414 -13 
L 1414 153 
C 1005 153 979 178 979 426 
L 979 4396 
z
" id="CMR17-6c" transform="scale(0.015625)"/>
       <path d="M 1978 2697 
C 1978 2813 1971 2819 1933 2819 
C 1907 2819 1901 2813 1824 2717 
C 1805 2691 1747 2626 1728 2601 
C 1523 2819 1235 2819 1126 2819 
C 416 2819 160 2447 160 2076 
C 160 1498 813 1365 998 1325 
C 1402 1243 1542 1217 1677 1101 
C 1760 1025 1901 884 1901 654 
C 1901 384 1747 38 1158 38 
C 602 38 403 460 288 1021 
C 269 1110 269 1117 218 1117 
C 166 1117 160 1110 160 983 
L 160 63 
C 160 -51 166 -58 205 -58 
C 237 -58 243 -51 275 0 
C 314 57 410 211 448 276 
C 576 103 800 -64 1158 -64 
C 1792 -64 2131 283 2131 784 
C 2131 1112 1958 1285 1875 1362 
C 1683 1561 1459 1606 1190 1657 
C 838 1735 390 1825 390 2217 
C 390 2383 480 2737 1126 2737 
C 1811 2737 1850 2094 1862 1888 
C 1869 1856 1901 1849 1920 1849 
C 1978 1849 1978 1869 1978 1978 
L 1978 2697 
z
" id="CMR17-73" transform="scale(0.015625)"/>
       <path d="M 4218 1472 
C 4326 1472 4442 1472 4442 1600 
C 4442 1728 4326 1728 4218 1728 
L 755 1728 
C 646 1728 531 1728 531 1600 
C 531 1472 646 1472 755 1472 
L 4218 1472 
z
" id="CMSY10-0" transform="scale(0.015625)"/>
      </defs>
      <use transform="scale(0.996264)" xlink:href="#CMR17-32"/>
      <use transform="translate(45.690477 0)scale(0.996264)" xlink:href="#CMR17-2e"/>
      <use transform="translate(70.561536 0)scale(0.996264)" xlink:href="#CMR17-35"/>
      <use transform="translate(116.252013 0)scale(0.996264)" xlink:href="#CMR17-65"/>
      <use transform="translate(156.737673 0)scale(0.996264)" xlink:href="#CMR17-2b"/>
      <use transform="translate(228.452462 0)scale(0.996264)" xlink:href="#CMR17-32"/>
      <use transform="translate(274.142939 0)scale(0.996264)" xlink:href="#CMR17-31"/>
      <use transform="translate(349.909382 0)scale(0.996264)" xlink:href="#CMR17-6d"/>
      <use transform="translate(426.828972 0)scale(0.996264)" xlink:href="#CMR17-6f"/>
      <use transform="translate(472.519449 0)scale(0.996264)" xlink:href="#CMR17-6c"/>
      <use transform="translate(527.466474 0)scale(0.996264)" xlink:href="#CMR17-73"/>
      <use transform="translate(563.267812 36.153639)scale(0.697382)" xlink:href="#CMSY10-0"/>
      <use transform="translate(617.508805 36.153639)scale(0.697382)" xlink:href="#CMR17-31"/>
     </g>
    </g>
    <g id="PathCollection_4">
     <g>
      <use style="fill:#ff7f0e;stroke:#ff7f0e;stroke-width:1.5;" x="324.888577" xlink:href="#m3c9fd72284" y="117.183461"/>
     </g>
    </g>
    <g id="text_18">
     <!-- 4.4e+21 mol s$^{-1}$ -->
     <g transform="translate(346.488577 120.333461)scale(0.12 -0.12)">
      <use transform="scale(0.996264)" xlink:href="#CMR17-34"/>
      <use transform="translate(45.690477 0)scale(0.996264)" xlink:href="#CMR17-2e"/>
      <use transform="translate(70.561536 0)scale(0.996264)" xlink:href="#CMR17-34"/>
      <use transform="translate(116.252013 0)scale(0.996264)" xlink:href="#CMR17-65"/>
      <use transform="translate(156.737673 0)scale(0.996264)" xlink:href="#CMR17-2b"/>
      <use transform="translate(228.452462 0)scale(0.996264)" xlink:href="#CMR17-32"/>
      <use transform="translate(274.142939 0)scale(0.996264)" xlink:href="#CMR17-31"/>
      <use transform="translate(349.909382 0)scale(0.996264)" xlink:href="#CMR17-6d"/>
      <use transform="translate(426.828972 0)scale(0.996264)" xlink:href="#CMR17-6f"/>
      <use transform="translate(472.519449 0)scale(0.996264)" xlink:href="#CMR17-6c"/>
      <use transform="translate(527.466474 0)scale(0.996264)" xlink:href="#CMR17-73"/>
      <use transform="translate(563.267812 36.153639)scale(0.697382)" xlink:href="#CMSY10-0"/>
      <use transform="translate(617.508805 36.153639)scale(0.697382)" xlink:href="#CMR17-31"/>
     </g>
    </g>
   </g>
  </g>
 </g>
 <defs>
  <clipPath id="pf087463f2e">
   <rect height="109.195876" width="389.488369" x="50.87281" y="24.26218"/>
  </clipPath>
 </defs>
</svg>
