<?xml version="1.0" encoding="utf-8" standalone="no"?>
<!DOCTYPE svg PUBLIC "-//W3C//DTD SVG 1.1//EN"
  "http://www.w3.org/Graphics/SVG/1.1/DTD/svg11.dtd">
<svg height="216pt" version="1.1" viewBox="0 0 504 216" width="504pt" xmlns="http://www.w3.org/2000/svg" xmlns:xlink="http://www.w3.org/1999/xlink">
 <metadata>
  <rdf:RDF xmlns:cc="http://creativecommons.org/ns#" xmlns:dc="http://purl.org/dc/elements/1.1/" xmlns:rdf="http://www.w3.org/1999/02/22-rdf-syntax-ns#">
   <cc:Work>
    <dc:type rdf:resource="http://purl.org/dc/dcmitype/StillImage"/>
    <dc:date>2021-06-15T12:00:13.921031</dc:date>
    <dc:format>image/svg+xml</dc:format>
    <dc:creator>
     <cc:Agent>
      <dc:title>Matplotlib v3.4.2, https://matplotlib.org/</dc:title>
     </cc:Agent>
    </dc:creator>
   </cc:Work>
  </rdf:RDF>
 </metadata>
 <defs>
  <style type="text/css">*{stroke-linecap:butt;stroke-linejoin:round;}</style>
 </defs>
 <g id="figure_1">
  <g id="patch_1">
   <path d="M 0 216 
L 504 216 
L 504 0 
L 0 0 
z
" style="fill:#ffffff;"/>
  </g>
  <g id="axes_1">
   <g id="patch_2">
    <path d="M 51.227027 168.949694 
L 186.858018 168.949694 
L 186.858018 28.922625 
L 51.227027 28.922625 
z
" style="fill:#ffffff;"/>
   </g>
   <g id="PolyCollection_1">
    <path clip-path="url(#paa66242452)" d="M 51.227027 38.376543 
L 51.227027 168.949694 
L 69.056453 168.949694 
L 78.607931 168.949694 
L 88.159409 168.949694 
L 100.894713 168.949694 
L 116.813844 168.949694 
L 129.549148 168.949694 
L 142.284453 168.949694 
L 159.158731 168.949694 
L 176.033009 168.949694 
L 186.858018 168.949694 
L 186.858018 100.435911 
L 186.858018 100.435911 
L 176.033009 99.03904 
L 159.158731 93.340948 
L 142.284453 83.846824 
L 129.549148 78.499756 
L 116.813844 73.244404 
L 100.894713 66.580141 
L 88.159409 59.067191 
L 78.607931 54.644474 
L 69.056453 45.707552 
L 51.227027 38.376543 
z
" style="fill:#1f77b4;fill-opacity:0.3;"/>
   </g>
   <g id="PolyCollection_2">
    <path clip-path="url(#paa66242452)" d="M 51.227027 38.376543 
L 51.227027 28.922625 
L 69.056453 28.922625 
L 78.607931 28.922625 
L 88.159409 28.922625 
L 100.894713 28.922625 
L 116.813844 28.922625 
L 129.549148 28.922625 
L 142.284453 28.922625 
L 159.158731 28.922625 
L 176.033009 28.922625 
L 186.858018 28.922625 
L 186.858018 100.435911 
L 186.858018 100.435911 
L 176.033009 99.03904 
L 159.158731 93.340948 
L 142.284453 83.846824 
L 129.549148 78.499756 
L 116.813844 73.244404 
L 100.894713 66.580141 
L 88.159409 59.067191 
L 78.607931 54.644474 
L 69.056453 45.707552 
L 51.227027 38.376543 
z
" style="fill:#ff7f0e;fill-opacity:0.3;"/>
   </g>
   <g id="matplotlib.axis_1">
    <g id="xtick_1">
     <g id="line2d_1">
      <defs>
       <path d="M 0 0 
L 0 3.5 
" id="ma4cbfb8c09" style="stroke:#000000;stroke-width:0.8;"/>
      </defs>
      <g>
       <use style="stroke:#000000;stroke-width:0.8;" x="100.894713" xlink:href="#ma4cbfb8c09" y="168.949694"/>
      </g>
     </g>
     <g id="text_1">
      <!-- $\mathdefault{2}$ -->
      <g transform="translate(97.968218 184.251873)scale(0.12 -0.12)">
       <defs>
        <path d="M 2669 989 
L 2554 989 
C 2490 536 2438 459 2413 420 
C 2381 369 1920 369 1830 369 
L 602 369 
C 832 619 1280 1072 1824 1597 
C 2214 1967 2669 2402 2669 3035 
C 2669 3790 2067 4224 1395 4224 
C 691 4224 262 3604 262 3030 
C 262 2780 448 2748 525 2748 
C 589 2748 781 2787 781 3010 
C 781 3207 614 3264 525 3264 
C 486 3264 448 3258 422 3245 
C 544 3790 915 4058 1306 4058 
C 1862 4058 2227 3617 2227 3035 
C 2227 2479 1901 2000 1536 1584 
L 262 146 
L 262 0 
L 2515 0 
L 2669 989 
z
" id="CMR17-32" transform="scale(0.015625)"/>
       </defs>
       <use transform="scale(0.996264)" xlink:href="#CMR17-32"/>
      </g>
     </g>
    </g>
    <g id="xtick_2">
     <g id="line2d_2">
      <g>
       <use style="stroke:#000000;stroke-width:0.8;" x="164.571235" xlink:href="#ma4cbfb8c09" y="168.949694"/>
      </g>
     </g>
     <g id="text_2">
      <!-- $\mathdefault{4}$ -->
      <g transform="translate(161.64474 184.251873)scale(0.12 -0.12)">
       <defs>
        <path d="M 2150 4122 
C 2150 4256 2144 4256 2029 4256 
L 128 1254 
L 128 1088 
L 1779 1088 
L 1779 457 
C 1779 224 1766 160 1318 160 
L 1197 160 
L 1197 0 
C 1402 0 1747 0 1965 0 
C 2182 0 2528 0 2733 0 
L 2733 160 
L 2611 160 
C 2163 160 2150 224 2150 457 
L 2150 1088 
L 2803 1088 
L 2803 1254 
L 2150 1254 
L 2150 4122 
z
M 1798 3703 
L 1798 1254 
L 256 1254 
L 1798 3703 
z
" id="CMR17-34" transform="scale(0.015625)"/>
       </defs>
       <use transform="scale(0.996264)" xlink:href="#CMR17-34"/>
      </g>
     </g>
    </g>
    <g id="text_3">
     <!-- Puff rate (s$^{-1}$) -->
     <g transform="translate(81.891806 200.051208)scale(0.12 -0.12)">
      <defs>
       <path d="M 1267 2042 
L 2291 2042 
C 3117 2042 3718 2578 3718 3184 
C 3718 3791 3130 4352 2291 4352 
L 333 4352 
L 333 4186 
C 774 4186 845 4186 845 3899 
L 845 446 
C 845 160 774 160 333 160 
L 333 0 
C 518 0 858 0 1056 0 
C 1254 0 1594 0 1779 0 
L 1779 160 
C 1338 160 1267 160 1267 446 
L 1267 2042 
z
M 1254 2176 
L 1254 3938 
C 1254 4155 1267 4186 1523 4186 
L 2170 4186 
C 2995 4186 3232 3714 3232 3184 
C 3232 2604 2950 2176 2170 2176 
L 1254 2176 
z
" id="CMR17-50" transform="scale(0.015625)"/>
       <path d="M 1882 2693 
L 1882 2528 
C 2259 2528 2317 2489 2317 2186 
L 2317 1032 
C 2317 500 2029 38 1555 38 
C 1030 38 986 348 986 678 
L 986 2763 
L 211 2693 
L 211 2528 
C 467 2528 640 2528 646 2274 
L 646 1058 
C 646 633 646 361 813 183 
C 896 101 1056 -64 1517 -64 
C 2061 -64 2272 377 2323 506 
L 2330 506 
L 2330 -63 
L 3091 -63 
L 3091 128 
C 2714 128 2656 166 2656 473 
L 2656 2763 
L 1882 2693 
z
" id="CMR17-75" transform="scale(0.015625)"/>
       <path d="M 2554 2560 
L 3283 2560 
L 3283 2725 
L 2541 2725 
L 2541 3494 
C 2541 4022 2810 4352 3085 4352 
C 3168 4352 3264 4327 3328 4282 
C 3277 4269 3142 4225 3142 4067 
C 3142 3901 3270 3850 3360 3850 
C 3450 3850 3578 3901 3578 4067 
C 3578 4308 3347 4454 3091 4454 
C 2842 4454 2637 4333 2477 4181 
C 2330 4390 2086 4454 1837 4454 
C 1338 4454 634 4168 634 3469 
L 634 2725 
L 122 2725 
L 122 2560 
L 634 2560 
L 634 427 
C 634 184 608 153 198 153 
L 198 -13 
C 352 0 634 0 794 0 
C 960 0 1242 0 1395 -13 
L 1395 153 
C 986 153 960 178 960 427 
L 960 2560 
L 2227 2560 
L 2227 427 
C 2227 184 2202 153 1792 153 
L 1792 -13 
C 1946 0 2240 0 2406 0 
C 2592 0 2918 0 3091 -13 
L 3091 153 
C 2630 153 2554 153 2554 439 
L 2554 2560 
z
M 947 2725 
L 947 3469 
C 947 4047 1395 4352 1824 4352 
C 1920 4352 2170 4332 2323 4187 
C 2208 4187 2099 4136 2099 3977 
C 2099 3812 2246 3767 2259 3767 
C 2227 3652 2227 3526 2227 3481 
L 2227 2725 
L 947 2725 
z
" id="CMR17-b" transform="scale(0.015625)"/>
       <path d="M 960 1497 
C 960 2112 1222 2688 1702 2688 
C 1747 2688 1792 2682 1837 2662 
C 1837 2662 1696 2617 1696 2452 
C 1696 2298 1818 2234 1914 2234 
C 1990 2234 2131 2279 2131 2458 
C 2131 2663 1926 2790 1709 2790 
C 1222 2790 1011 2317 947 2093 
L 941 2093 
L 941 2790 
L 198 2720 
L 198 2554 
C 576 2554 634 2515 634 2208 
L 634 428 
C 634 184 608 153 198 153 
L 198 -13 
C 352 0 646 0 813 0 
C 998 0 1325 0 1498 -13 
L 1498 153 
C 1037 153 960 153 960 440 
L 960 1497 
z
" id="CMR17-72" transform="scale(0.015625)"/>
       <path d="M 2304 1653 
C 2304 2072 2304 2294 2035 2543 
C 1798 2752 1523 2816 1306 2816 
C 800 2816 435 2407 435 1971 
C 435 1728 627 1728 666 1728 
C 749 1728 896 1778 896 1954 
C 896 2112 774 2181 666 2181 
C 640 2181 608 2174 589 2168 
C 723 2592 1069 2714 1293 2714 
C 1613 2714 1965 2429 1965 1885 
L 1965 1600 
C 1587 1600 1133 1549 774 1357 
C 371 1133 256 813 256 570 
C 256 77 832 -64 1171 -64 
C 1523 -64 1850 139 1990 511 
C 2003 233 2182 -18 2464 -18 
C 2598 -18 2938 70 2938 567 
L 2938 920 
L 2822 920 
L 2822 562 
C 2822 178 2650 128 2566 128 
C 2304 128 2304 458 2304 738 
L 2304 1653 
z
M 1965 870 
C 1965 317 1568 38 1216 38 
C 896 38 646 275 646 570 
C 646 761 730 1100 1101 1305 
C 1408 1478 1760 1504 1965 1504 
L 1965 870 
z
" id="CMR17-61" transform="scale(0.015625)"/>
       <path d="M 966 2560 
L 1862 2560 
L 1862 2725 
L 966 2725 
L 966 3904 
L 851 3904 
C 838 3245 614 2668 70 2668 
L 70 2560 
L 627 2560 
L 627 771 
C 627 650 627 -64 1370 -64 
C 1747 -64 1965 306 1965 777 
L 1965 1140 
L 1850 1140 
L 1850 783 
C 1850 344 1677 51 1408 51 
C 1222 51 966 178 966 758 
L 966 2560 
z
" id="CMR17-74" transform="scale(0.015625)"/>
       <path d="M 2438 1472 
C 2464 1498 2464 1511 2464 1576 
C 2464 2238 2118 2816 1389 2816 
C 710 2816 173 2169 173 1383 
C 173 551 781 -64 1459 -64 
C 2176 -64 2458 607 2458 740 
C 2458 784 2419 784 2406 784 
C 2362 784 2355 771 2330 696 
C 2189 265 1837 51 1504 51 
C 1229 51 954 203 781 480 
C 582 803 582 1176 582 1472 
L 2438 1472 
z
M 589 1568 
C 634 2505 1126 2714 1382 2714 
C 1818 2714 2112 2297 2118 1568 
L 589 1568 
z
" id="CMR17-65" transform="scale(0.015625)"/>
       <path d="M 1958 -1561 
C 1958 -1555 1958 -1542 1939 -1523 
C 1645 -1224 858 -407 858 1581 
C 858 3569 1632 4379 1946 4697 
C 1946 4704 1958 4717 1958 4736 
C 1958 4755 1939 4768 1914 4768 
C 1843 4768 1299 4296 986 3594 
C 666 2887 576 2199 576 1588 
C 576 1128 621 351 1005 -471 
C 1312 -1135 1837 -1600 1914 -1600 
C 1946 -1600 1958 -1587 1958 -1561 
z
" id="CMR17-28" transform="scale(0.015625)"/>
       <path d="M 1978 2697 
C 1978 2813 1971 2819 1933 2819 
C 1907 2819 1901 2813 1824 2717 
C 1805 2691 1747 2626 1728 2601 
C 1523 2819 1235 2819 1126 2819 
C 416 2819 160 2447 160 2076 
C 160 1498 813 1365 998 1325 
C 1402 1243 1542 1217 1677 1101 
C 1760 1025 1901 884 1901 654 
C 1901 384 1747 38 1158 38 
C 602 38 403 460 288 1021 
C 269 1110 269 1117 218 1117 
C 166 1117 160 1110 160 983 
L 160 63 
C 160 -51 166 -58 205 -58 
C 237 -58 243 -51 275 0 
C 314 57 410 211 448 276 
C 576 103 800 -64 1158 -64 
C 1792 -64 2131 283 2131 784 
C 2131 1112 1958 1285 1875 1362 
C 1683 1561 1459 1606 1190 1657 
C 838 1735 390 1825 390 2217 
C 390 2383 480 2737 1126 2737 
C 1811 2737 1850 2094 1862 1888 
C 1869 1856 1901 1849 1920 1849 
C 1978 1849 1978 1869 1978 1978 
L 1978 2697 
z
" id="CMR17-73" transform="scale(0.015625)"/>
       <path d="M 4218 1472 
C 4326 1472 4442 1472 4442 1600 
C 4442 1728 4326 1728 4218 1728 
L 755 1728 
C 646 1728 531 1728 531 1600 
C 531 1472 646 1472 755 1472 
L 4218 1472 
z
" id="CMSY10-0" transform="scale(0.015625)"/>
       <path d="M 1702 4058 
C 1702 4192 1696 4192 1606 4192 
C 1357 3916 979 3827 621 3827 
C 602 3827 570 3827 563 3808 
C 557 3795 557 3782 557 3648 
C 755 3648 1088 3686 1344 3839 
L 1344 461 
C 1344 236 1331 160 781 160 
L 589 160 
L 589 0 
C 896 0 1216 0 1523 0 
C 1830 0 2150 0 2458 0 
L 2458 160 
L 2266 160 
C 1715 160 1702 230 1702 458 
L 1702 4058 
z
" id="CMR17-31" transform="scale(0.015625)"/>
       <path d="M 1683 1581 
C 1683 2040 1638 2817 1254 3639 
C 947 4303 422 4768 346 4768 
C 326 4768 301 4761 301 4729 
C 301 4717 307 4710 314 4697 
C 621 4378 1402 3568 1402 1584 
C 1402 -407 627 -1217 314 -1537 
C 307 -1549 301 -1556 301 -1568 
C 301 -1600 326 -1600 346 -1600 
C 416 -1600 960 -1128 1274 -426 
C 1594 281 1683 969 1683 1581 
z
" id="CMR17-29" transform="scale(0.015625)"/>
      </defs>
      <use transform="scale(0.996264)" xlink:href="#CMR17-50"/>
      <use transform="translate(62.586301 0)scale(0.996264)" xlink:href="#CMR17-75"/>
      <use transform="translate(113.48167 0)scale(0.996264)" xlink:href="#CMR17-b"/>
      <use transform="translate(195.902314 0)scale(0.996264)" xlink:href="#CMR17-72"/>
      <use transform="translate(231.183082 0)scale(0.996264)" xlink:href="#CMR17-61"/>
      <use transform="translate(276.873559 0)scale(0.996264)" xlink:href="#CMR17-74"/>
      <use transform="translate(312.154327 0)scale(0.996264)" xlink:href="#CMR17-65"/>
      <use transform="translate(382.715953 0)scale(0.996264)" xlink:href="#CMR17-28"/>
      <use transform="translate(417.996721 0)scale(0.996264)" xlink:href="#CMR17-73"/>
      <use transform="translate(453.798059 36.153639)scale(0.697382)" xlink:href="#CMSY10-0"/>
      <use transform="translate(508.039052 36.153639)scale(0.697382)" xlink:href="#CMR17-31"/>
      <use transform="translate(540.520366 0)scale(0.996264)" xlink:href="#CMR17-29"/>
     </g>
    </g>
    <g id="text_4">
     <!-- $\times\mathdefault{10^{21}}\mathdefault{}$ -->
     <g transform="translate(157.385182 197.878649)scale(0.12 -0.12)">
      <defs>
       <path d="M 2490 1785 
L 1210 3059 
C 1133 3136 1120 3148 1069 3148 
C 1005 3148 941 3091 941 3020 
C 941 2976 954 2963 1024 2892 
L 2304 1606 
L 1024 320 
C 954 249 941 236 941 192 
C 941 121 1005 64 1069 64 
C 1120 64 1133 76 1210 153 
L 2483 1427 
L 3808 102 
C 3821 96 3866 64 3904 64 
C 3981 64 4032 121 4032 192 
C 4032 204 4032 230 4013 262 
C 4006 275 2989 1280 2669 1606 
L 3840 2777 
C 3872 2816 3968 2899 4000 2937 
C 4006 2950 4032 2976 4032 3020 
C 4032 3091 3981 3148 3904 3148 
C 3853 3148 3827 3123 3757 3052 
L 2490 1785 
z
" id="CMSY10-2" transform="scale(0.015625)"/>
       <path d="M 2688 2025 
C 2688 2416 2682 3080 2413 3591 
C 2176 4039 1798 4198 1466 4198 
C 1158 4198 768 4058 525 3597 
C 269 3118 243 2524 243 2025 
C 243 1661 250 1106 448 619 
C 723 -39 1216 -128 1466 -128 
C 1760 -128 2208 -7 2470 600 
C 2662 1042 2688 1559 2688 2025 
z
M 1466 -26 
C 1056 -26 813 325 723 812 
C 653 1188 653 1738 653 2096 
C 653 2588 653 2997 736 3387 
C 858 3929 1216 4096 1466 4096 
C 1728 4096 2067 3923 2189 3400 
C 2272 3036 2278 2607 2278 2096 
C 2278 1680 2278 1169 2202 792 
C 2067 95 1690 -26 1466 -26 
z
" id="CMR17-30" transform="scale(0.015625)"/>
      </defs>
      <use transform="scale(0.996264)" xlink:href="#CMSY10-2"/>
      <use transform="translate(77.487468 0)scale(0.996264)" xlink:href="#CMR17-31"/>
      <use transform="translate(123.177945 0)scale(0.996264)" xlink:href="#CMR17-30"/>
      <use transform="translate(168.868422 36.153639)scale(0.697382)" xlink:href="#CMR17-32"/>
      <use transform="translate(200.851604 36.153639)scale(0.697382)" xlink:href="#CMR17-31"/>
     </g>
    </g>
   </g>
   <g id="matplotlib.axis_2">
    <g id="ytick_1">
     <g id="line2d_3">
      <defs>
       <path d="M 0 0 
L -3.5 0 
" id="mb316c2ee6a" style="stroke:#000000;stroke-width:0.8;"/>
      </defs>
      <g>
       <use style="stroke:#000000;stroke-width:0.8;" x="51.227027" xlink:href="#mb316c2ee6a" y="168.949694"/>
      </g>
     </g>
     <g id="text_5">
      <!-- $\mathdefault{0.0}$ -->
      <g transform="translate(29.269385 173.100783)scale(0.12 -0.12)">
       <defs>
        <path d="M 1178 307 
C 1178 492 1024 619 870 619 
C 685 619 557 466 557 313 
C 557 128 710 0 864 0 
C 1050 0 1178 153 1178 307 
z
" id="CMMI12-3a" transform="scale(0.015625)"/>
       </defs>
       <use transform="scale(0.996264)" xlink:href="#CMR17-30"/>
       <use transform="translate(45.690477 0)scale(0.996264)" xlink:href="#CMMI12-3a"/>
       <use transform="translate(72.787654 0)scale(0.996264)" xlink:href="#CMR17-30"/>
      </g>
     </g>
    </g>
    <g id="ytick_2">
     <g id="line2d_4">
      <g>
       <use style="stroke:#000000;stroke-width:0.8;" x="51.227027" xlink:href="#mb316c2ee6a" y="98.936159"/>
      </g>
     </g>
     <g id="text_6">
      <!-- $\mathdefault{0.5}$ -->
      <g transform="translate(29.269385 103.087249)scale(0.12 -0.12)">
       <defs>
        <path d="M 730 3692 
C 794 3666 1056 3584 1325 3584 
C 1920 3584 2246 3911 2432 4100 
C 2432 4157 2432 4192 2394 4192 
C 2387 4192 2374 4192 2323 4163 
C 2099 4058 1837 3973 1517 3973 
C 1325 3973 1037 3999 723 4139 
C 653 4171 640 4171 634 4171 
C 602 4171 595 4164 595 4037 
L 595 2203 
C 595 2089 595 2057 659 2057 
C 691 2057 704 2070 736 2114 
C 941 2401 1222 2522 1542 2522 
C 1766 2522 2246 2382 2246 1289 
C 2246 1085 2246 715 2054 421 
C 1894 159 1645 25 1370 25 
C 947 25 518 320 403 814 
C 429 807 480 795 506 795 
C 589 795 749 840 749 1038 
C 749 1210 627 1280 506 1280 
C 358 1280 262 1190 262 1011 
C 262 454 704 -128 1382 -128 
C 2042 -128 2669 440 2669 1264 
C 2669 2030 2170 2624 1549 2624 
C 1222 2624 947 2503 730 2274 
L 730 3692 
z
" id="CMR17-35" transform="scale(0.015625)"/>
       </defs>
       <use transform="scale(0.996264)" xlink:href="#CMR17-30"/>
       <use transform="translate(45.690477 0)scale(0.996264)" xlink:href="#CMMI12-3a"/>
       <use transform="translate(72.787654 0)scale(0.996264)" xlink:href="#CMR17-35"/>
      </g>
     </g>
    </g>
    <g id="ytick_3">
     <g id="line2d_5">
      <g>
       <use style="stroke:#000000;stroke-width:0.8;" x="51.227027" xlink:href="#mb316c2ee6a" y="28.922625"/>
      </g>
     </g>
     <g id="text_7">
      <!-- $\mathdefault{1.0}$ -->
      <g transform="translate(29.269385 33.073715)scale(0.12 -0.12)">
       <use transform="scale(0.996264)" xlink:href="#CMR17-31"/>
       <use transform="translate(45.690477 0)scale(0.996264)" xlink:href="#CMMI12-3a"/>
       <use transform="translate(72.787654 0)scale(0.996264)" xlink:href="#CMR17-30"/>
      </g>
     </g>
    </g>
    <g id="text_8">
     <!-- $c_{\mathrm{surface}, \mathrm{ions}} / c_\mathrm{surface}$ -->
     <g transform="translate(21.926376 141.335884)rotate(-90)scale(0.12 -0.12)">
      <defs>
       <path d="M 2502 2431 
C 2381 2431 2323 2431 2234 2355 
C 2195 2323 2125 2227 2125 2125 
C 2125 1997 2221 1920 2342 1920 
C 2496 1920 2669 2044 2669 2292 
C 2669 2588 2374 2816 1933 2816 
C 1094 2816 256 1903 256 996 
C 256 441 602 -64 1254 -64 
C 2125 -64 2675 622 2675 706 
C 2675 744 2637 776 2611 776 
C 2592 776 2586 770 2528 713 
C 2118 162 1510 64 1267 64 
C 826 64 685 446 685 764 
C 685 988 794 1605 1024 2039 
C 1190 2338 1536 2682 1939 2682 
C 2022 2682 2374 2682 2502 2431 
z
" id="CMMI12-63" transform="scale(0.015625)"/>
       <path d="M 979 2560 
L 1709 2560 
L 1709 2725 
L 966 2725 
L 966 3494 
C 966 4022 1235 4352 1510 4352 
C 1594 4352 1690 4327 1754 4282 
C 1702 4269 1568 4225 1568 4067 
C 1568 3901 1696 3850 1786 3850 
C 1875 3850 2003 3901 2003 4067 
C 2003 4308 1773 4454 1517 4454 
C 1152 4454 653 4156 653 3481 
L 653 2725 
L 141 2725 
L 141 2560 
L 653 2560 
L 653 427 
C 653 184 627 153 218 153 
L 218 -13 
C 371 0 666 0 832 0 
C 1018 0 1344 0 1517 -13 
L 1517 153 
C 1056 153 979 153 979 439 
L 979 2560 
z
" id="CMR17-66" transform="scale(0.015625)"/>
       <path d="M 2234 2240 
C 2112 2240 1933 2240 1933 2017 
C 1933 1838 2080 1787 2163 1787 
C 2208 1787 2394 1807 2394 2024 
C 2394 2467 1958 2803 1466 2803 
C 787 2803 211 2178 211 1363 
C 211 516 813 -64 1466 -64 
C 2259 -64 2458 677 2458 748 
C 2458 774 2451 793 2406 793 
C 2362 793 2355 787 2330 703 
C 2163 180 1798 51 1523 51 
C 1114 51 621 427 621 1369 
C 621 2338 1094 2688 1472 2688 
C 1722 2688 2093 2573 2234 2240 
z
" id="CMR17-63" transform="scale(0.015625)"/>
       <path d="M 1248 -31 
C 1248 343 1126 619 864 619 
C 659 619 557 453 557 313 
C 557 172 653 0 870 0 
C 954 0 1024 26 1082 83 
C 1094 96 1101 96 1107 96 
C 1120 96 1120 5 1120 -27 
C 1120 -240 1082 -659 710 -1080 
C 640 -1157 640 -1170 640 -1183 
C 640 -1216 672 -1248 704 -1248 
C 755 -1248 1248 -771 1248 -31 
z
" id="CMMI12-3b" transform="scale(0.015625)"/>
       <path d="M 992 3909 
C 992 4049 877 4170 730 4170 
C 589 4170 467 4056 467 3909 
C 467 3769 582 3648 730 3648 
C 870 3648 992 3763 992 3909 
z
M 243 2706 
L 243 2541 
C 602 2541 653 2502 653 2197 
L 653 427 
C 653 184 627 153 218 153 
L 218 -13 
C 371 0 646 0 806 0 
C 960 0 1222 0 1370 -13 
L 1370 153 
C 992 153 979 191 979 420 
L 979 2776 
L 243 2706 
z
" id="CMR17-69" transform="scale(0.015625)"/>
       <path d="M 2758 1356 
C 2758 2176 2163 2816 1466 2816 
C 768 2816 173 2176 173 1356 
C 173 551 768 -64 1466 -64 
C 2163 -64 2758 551 2758 1356 
z
M 1466 51 
C 1165 51 909 230 762 480 
C 602 767 582 1126 582 1408 
C 582 1677 595 2010 762 2298 
C 890 2509 1139 2714 1466 2714 
C 1754 2714 1997 2554 2150 2330 
C 2349 2029 2349 1607 2349 1408 
C 2349 1158 2336 775 2163 467 
C 1984 173 1709 51 1466 51 
z
" id="CMR17-6f" transform="scale(0.015625)"/>
       <path d="M 2656 1933 
C 2656 2259 2592 2790 1837 2790 
C 1331 2790 1069 2400 973 2144 
L 966 2144 
L 966 2790 
L 211 2720 
L 211 2554 
C 589 2554 646 2515 646 2208 
L 646 428 
C 646 184 621 153 211 153 
L 211 -13 
C 365 0 646 0 813 0 
C 979 0 1267 0 1421 -13 
L 1421 153 
C 1011 153 986 178 986 428 
L 986 1658 
C 986 2247 1344 2688 1792 2688 
C 2266 2688 2317 2266 2317 1958 
L 2317 428 
C 2317 184 2291 153 1882 153 
L 1882 -13 
C 2035 0 2317 0 2483 0 
C 2650 0 2938 0 3091 -13 
L 3091 153 
C 2682 153 2656 178 2656 428 
L 2656 1933 
z
" id="CMR17-6e" transform="scale(0.015625)"/>
       <path d="M 2746 4562 
C 2746 4569 2784 4666 2784 4678 
C 2784 4755 2720 4800 2669 4800 
C 2637 4800 2579 4800 2528 4659 
L 384 -1363 
C 384 -1370 346 -1465 346 -1478 
C 346 -1555 410 -1600 461 -1600 
C 499 -1600 557 -1593 602 -1459 
L 2746 4562 
z
" id="CMMI12-3d" transform="scale(0.015625)"/>
      </defs>
      <use transform="scale(0.996264)" xlink:href="#CMMI12-63"/>
      <use transform="translate(41.983234 -14.943915)scale(0.697382)" xlink:href="#CMR17-73"/>
      <use transform="translate(67.044056 -14.943915)scale(0.697382)" xlink:href="#CMR17-75"/>
      <use transform="translate(102.670664 -14.943915)scale(0.697382)" xlink:href="#CMR17-72"/>
      <use transform="translate(127.367085 -14.943915)scale(0.697382)" xlink:href="#CMR17-66"/>
      <use transform="translate(146.598449 -14.943915)scale(0.697382)" xlink:href="#CMR17-61"/>
      <use transform="translate(178.581631 -14.943915)scale(0.697382)" xlink:href="#CMR17-63"/>
      <use transform="translate(206.921463 -14.943915)scale(0.697382)" xlink:href="#CMR17-65"/>
      <use transform="translate(235.261294 -14.943915)scale(0.697382)" xlink:href="#CMMI12-3b"/>
      <use transform="translate(254.229227 -14.943915)scale(0.697382)" xlink:href="#CMR17-69"/>
      <use transform="translate(271.638886 -14.943915)scale(0.697382)" xlink:href="#CMR17-6f"/>
      <use transform="translate(303.622068 -14.943915)scale(0.697382)" xlink:href="#CMR17-6e"/>
      <use transform="translate(339.248676 -14.943915)scale(0.697382)" xlink:href="#CMR17-73"/>
      <use transform="translate(364.807631 0)scale(0.996264)" xlink:href="#CMMI12-3d"/>
      <use transform="translate(413.582549 0)scale(0.996264)" xlink:href="#CMMI12-63"/>
      <use transform="translate(455.565783 -14.943915)scale(0.697382)" xlink:href="#CMR17-73"/>
      <use transform="translate(480.626605 -14.943915)scale(0.697382)" xlink:href="#CMR17-75"/>
      <use transform="translate(516.253214 -14.943915)scale(0.697382)" xlink:href="#CMR17-72"/>
      <use transform="translate(540.949634 -14.943915)scale(0.697382)" xlink:href="#CMR17-66"/>
      <use transform="translate(560.180999 -14.943915)scale(0.697382)" xlink:href="#CMR17-61"/>
      <use transform="translate(592.16418 -14.943915)scale(0.697382)" xlink:href="#CMR17-63"/>
      <use transform="translate(620.504012 -14.943915)scale(0.697382)" xlink:href="#CMR17-65"/>
     </g>
    </g>
   </g>
   <g id="line2d_6">
    <path clip-path="url(#paa66242452)" d="M 51.227027 38.376543 
L 69.056453 45.707552 
L 78.607931 54.644474 
L 88.159409 59.067191 
L 100.894713 66.580141 
L 116.813844 73.244404 
L 129.549148 78.499756 
L 142.284453 83.846824 
L 159.158731 93.340948 
L 176.033009 99.03904 
L 186.858018 100.435911 
" style="fill:none;stroke:#1f77b4;stroke-linecap:square;stroke-width:1.5;"/>
    <defs>
     <path d="M -3 0 
L 3 0 
M 0 3 
L 0 -3 
" id="mbc53953a11" style="stroke:#1f77b4;"/>
    </defs>
    <g clip-path="url(#paa66242452)">
     <use style="fill:#1f77b4;stroke:#1f77b4;" x="51.227027" xlink:href="#mbc53953a11" y="38.376543"/>
     <use style="fill:#1f77b4;stroke:#1f77b4;" x="69.056453" xlink:href="#mbc53953a11" y="45.707552"/>
     <use style="fill:#1f77b4;stroke:#1f77b4;" x="78.607931" xlink:href="#mbc53953a11" y="54.644474"/>
     <use style="fill:#1f77b4;stroke:#1f77b4;" x="88.159409" xlink:href="#mbc53953a11" y="59.067191"/>
     <use style="fill:#1f77b4;stroke:#1f77b4;" x="100.894713" xlink:href="#mbc53953a11" y="66.580141"/>
     <use style="fill:#1f77b4;stroke:#1f77b4;" x="116.813844" xlink:href="#mbc53953a11" y="73.244404"/>
     <use style="fill:#1f77b4;stroke:#1f77b4;" x="129.549148" xlink:href="#mbc53953a11" y="78.499756"/>
     <use style="fill:#1f77b4;stroke:#1f77b4;" x="142.284453" xlink:href="#mbc53953a11" y="83.846824"/>
     <use style="fill:#1f77b4;stroke:#1f77b4;" x="159.158731" xlink:href="#mbc53953a11" y="93.340948"/>
     <use style="fill:#1f77b4;stroke:#1f77b4;" x="176.033009" xlink:href="#mbc53953a11" y="99.03904"/>
     <use style="fill:#1f77b4;stroke:#1f77b4;" x="186.858018" xlink:href="#mbc53953a11" y="100.435911"/>
    </g>
   </g>
   <g id="patch_3">
    <path d="M 51.227027 168.949694 
L 51.227027 28.922625 
" style="fill:none;stroke:#000000;stroke-linecap:square;stroke-linejoin:miter;stroke-width:0.8;"/>
   </g>
   <g id="patch_4">
    <path d="M 186.858018 168.949694 
L 186.858018 28.922625 
" style="fill:none;stroke:#000000;stroke-linecap:square;stroke-linejoin:miter;stroke-width:0.8;"/>
   </g>
   <g id="patch_5">
    <path d="M 51.227027 168.949694 
L 186.858018 168.949694 
" style="fill:none;stroke:#000000;stroke-linecap:square;stroke-linejoin:miter;stroke-width:0.8;"/>
   </g>
   <g id="patch_6">
    <path d="M 51.227027 28.922625 
L 186.858018 28.922625 
" style="fill:none;stroke:#000000;stroke-linecap:square;stroke-linejoin:miter;stroke-width:0.8;"/>
   </g>
   <g id="text_9">
    <!-- Ions -->
    <g style="fill:#ffffff;" transform="translate(132.732974 98.936159)scale(0.12 -0.12)">
     <defs>
      <path d="M 1261 3905 
C 1261 4192 1338 4192 1798 4192 
L 1798 4352 
C 1594 4352 1267 4352 1050 4352 
C 832 4352 506 4352 301 4352 
L 301 4192 
C 762 4192 838 4192 838 3905 
L 838 447 
C 838 160 762 160 301 160 
L 301 0 
C 506 0 832 0 1050 0 
C 1267 0 1594 0 1798 0 
L 1798 160 
C 1338 160 1261 160 1261 447 
L 1261 3905 
z
" id="CMR17-49" transform="scale(0.015625)"/>
     </defs>
     <use transform="scale(0.996264)" xlink:href="#CMR17-49"/>
     <use transform="translate(32.638409 0)scale(0.996264)" xlink:href="#CMR17-6f"/>
     <use transform="translate(78.328886 0)scale(0.996264)" xlink:href="#CMR17-6e"/>
     <use transform="translate(129.224256 0)scale(0.996264)" xlink:href="#CMR17-73"/>
    </g>
   </g>
   <g id="text_10">
    <!-- Atoms -->
    <g style="fill:#ffffff;" transform="translate(145.468279 84.933452)scale(0.12 -0.12)">
     <defs>
      <path d="M 2323 4378 
C 2291 4461 2278 4480 2214 4480 
C 2150 4480 2138 4461 2106 4378 
L 749 566 
C 627 223 371 153 147 153 
L 147 -13 
C 262 0 518 0 640 0 
C 800 0 1056 0 1210 -13 
L 1210 153 
C 909 153 864 361 864 439 
C 864 497 877 530 890 569 
L 1229 1536 
L 2906 1536 
L 3290 442 
C 3322 365 3322 352 3322 327 
C 3322 153 3046 153 2925 153 
L 2925 0 
C 3110 0 3443 0 3642 0 
C 3808 0 4128 0 4282 -13 
L 4282 153 
C 3942 153 3827 153 3744 387 
L 2323 4378 
z
M 2067 3893 
L 2848 1702 
L 1286 1702 
L 2067 3893 
z
" id="CMR17-41" transform="scale(0.015625)"/>
      <path d="M 4326 1933 
C 4326 2252 4269 2790 3507 2790 
C 3072 2790 2771 2496 2656 2151 
L 2650 2151 
C 2573 2676 2195 2790 1837 2790 
C 1331 2790 1069 2400 973 2144 
L 966 2144 
L 966 2790 
L 211 2720 
L 211 2554 
C 589 2554 646 2515 646 2208 
L 646 428 
C 646 184 621 153 211 153 
L 211 -13 
C 365 0 646 0 813 0 
C 979 0 1267 0 1421 -13 
L 1421 153 
C 1011 153 986 178 986 428 
L 986 1658 
C 986 2247 1344 2688 1792 2688 
C 2266 2688 2317 2266 2317 1958 
L 2317 428 
C 2317 184 2291 153 1882 153 
L 1882 -13 
C 2035 0 2317 0 2483 0 
C 2650 0 2938 0 3091 -13 
L 3091 153 
C 2682 153 2656 178 2656 428 
L 2656 1658 
C 2656 2247 3014 2688 3462 2688 
C 3936 2688 3987 2266 3987 1958 
L 3987 428 
C 3987 184 3962 153 3552 153 
L 3552 -13 
C 3706 0 3987 0 4154 0 
C 4320 0 4608 0 4762 -13 
L 4762 153 
C 4352 153 4326 178 4326 428 
L 4326 1933 
z
" id="CMR17-6d" transform="scale(0.015625)"/>
     </defs>
     <use transform="scale(0.996264)" xlink:href="#CMR17-41"/>
     <use transform="translate(66.469976 0)scale(0.996264)" xlink:href="#CMR17-74"/>
     <use transform="translate(101.750744 0)scale(0.996264)" xlink:href="#CMR17-6f"/>
     <use transform="translate(147.441221 0)scale(0.996264)" xlink:href="#CMR17-6d"/>
     <use transform="translate(224.360811 0)scale(0.996264)" xlink:href="#CMR17-73"/>
    </g>
   </g>
   <g id="text_11">
    <!-- ISP -->
    <g style="fill:#1f77b4;" transform="translate(107.82803 22.922625)scale(0.144 -0.144)">
     <defs>
      <path d="M 2803 4290 
C 2803 4404 2797 4411 2758 4411 
C 2720 4411 2707 4385 2682 4328 
L 2490 3907 
C 2246 4257 1875 4416 1472 4416 
C 819 4416 294 3901 294 3253 
C 294 3056 339 2776 557 2510 
C 794 2218 1018 2167 1530 2033 
C 1722 1982 2042 1899 2106 1874 
C 2470 1722 2662 1341 2662 985 
C 2662 527 2336 38 1779 38 
C 1094 38 454 419 410 1311 
C 403 1413 397 1419 352 1419 
C 301 1419 294 1413 294 1285 
L 294 -1 
C 294 -115 301 -122 339 -122 
C 384 -122 397 -90 486 108 
C 493 127 493 140 614 381 
C 934 -39 1472 -128 1779 -128 
C 2477 -128 2970 451 2970 1124 
C 2970 1454 2848 1708 2778 1823 
C 2509 2230 2221 2306 1914 2382 
C 1869 2402 1856 2402 1498 2490 
C 1152 2579 1005 2624 845 2796 
C 666 2992 602 3196 602 3399 
C 602 3812 934 4263 1478 4263 
C 2157 4263 2579 3786 2675 2993 
C 2694 2878 2701 2872 2746 2872 
C 2803 2872 2803 2891 2803 2999 
L 2803 4290 
z
" id="CMR17-53" transform="scale(0.015625)"/>
     </defs>
     <use transform="scale(0.996264)" xlink:href="#CMR17-49"/>
     <use transform="translate(32.638409 0)scale(0.996264)" xlink:href="#CMR17-53"/>
     <use transform="translate(83.533779 0)scale(0.996264)" xlink:href="#CMR17-50"/>
    </g>
   </g>
  </g>
  <g id="axes_2">
   <g id="patch_7">
    <path d="M 203.318018 168.949694 
L 338.949009 168.949694 
L 338.949009 28.922625 
L 203.318018 28.922625 
z
" style="fill:#ffffff;"/>
   </g>
   <g id="PolyCollection_3">
    <path clip-path="url(#pa357c60378)" d="M 203.318018 36.747867 
L 203.318018 168.949694 
L 221.147444 168.949694 
L 230.698922 168.949694 
L 240.2504 168.949694 
L 252.985705 168.949694 
L 268.904835 168.949694 
L 281.640139 168.949694 
L 294.375444 168.949694 
L 311.249722 168.949694 
L 328.124 168.949694 
L 338.949009 168.949694 
L 338.949009 110.842469 
L 338.949009 110.842469 
L 328.124 107.945584 
L 311.249722 103.958627 
L 294.375444 95.21615 
L 281.640139 89.187313 
L 268.904835 81.299782 
L 252.985705 71.339564 
L 240.2504 62.72101 
L 230.698922 54.461295 
L 221.147444 47.518357 
L 203.318018 36.747867 
z
" style="fill:#1f77b4;fill-opacity:0.3;"/>
   </g>
   <g id="PolyCollection_4">
    <path clip-path="url(#pa357c60378)" d="M 203.318018 36.747867 
L 203.318018 28.922625 
L 221.147444 28.922625 
L 230.698922 28.922625 
L 240.2504 28.922625 
L 252.985705 28.922625 
L 268.904835 28.922625 
L 281.640139 28.922625 
L 294.375444 28.922625 
L 311.249722 28.922625 
L 328.124 28.922625 
L 338.949009 28.922625 
L 338.949009 110.842469 
L 338.949009 110.842469 
L 328.124 107.945584 
L 311.249722 103.958627 
L 294.375444 95.21615 
L 281.640139 89.187313 
L 268.904835 81.299782 
L 252.985705 71.339564 
L 240.2504 62.72101 
L 230.698922 54.461295 
L 221.147444 47.518357 
L 203.318018 36.747867 
z
" style="fill:#ff7f0e;fill-opacity:0.3;"/>
   </g>
   <g id="matplotlib.axis_3">
    <g id="xtick_3">
     <g id="line2d_7">
      <g>
       <use style="stroke:#000000;stroke-width:0.8;" x="252.985705" xlink:href="#ma4cbfb8c09" y="168.949694"/>
      </g>
     </g>
     <g id="text_12">
      <!-- $\mathdefault{2}$ -->
      <g transform="translate(250.05921 184.251873)scale(0.12 -0.12)">
       <use transform="scale(0.996264)" xlink:href="#CMR17-32"/>
      </g>
     </g>
    </g>
    <g id="xtick_4">
     <g id="line2d_8">
      <g>
       <use style="stroke:#000000;stroke-width:0.8;" x="316.662226" xlink:href="#ma4cbfb8c09" y="168.949694"/>
      </g>
     </g>
     <g id="text_13">
      <!-- $\mathdefault{4}$ -->
      <g transform="translate(313.735731 184.251873)scale(0.12 -0.12)">
       <use transform="scale(0.996264)" xlink:href="#CMR17-34"/>
      </g>
     </g>
    </g>
    <g id="text_14">
     <!-- Puff rate (s$^{-1}$) -->
     <g transform="translate(233.982797 200.051208)scale(0.12 -0.12)">
      <use transform="scale(0.996264)" xlink:href="#CMR17-50"/>
      <use transform="translate(62.586301 0)scale(0.996264)" xlink:href="#CMR17-75"/>
      <use transform="translate(113.48167 0)scale(0.996264)" xlink:href="#CMR17-b"/>
      <use transform="translate(195.902314 0)scale(0.996264)" xlink:href="#CMR17-72"/>
      <use transform="translate(231.183082 0)scale(0.996264)" xlink:href="#CMR17-61"/>
      <use transform="translate(276.873559 0)scale(0.996264)" xlink:href="#CMR17-74"/>
      <use transform="translate(312.154327 0)scale(0.996264)" xlink:href="#CMR17-65"/>
      <use transform="translate(382.715953 0)scale(0.996264)" xlink:href="#CMR17-28"/>
      <use transform="translate(417.996721 0)scale(0.996264)" xlink:href="#CMR17-73"/>
      <use transform="translate(453.798059 36.153639)scale(0.697382)" xlink:href="#CMSY10-0"/>
      <use transform="translate(508.039052 36.153639)scale(0.697382)" xlink:href="#CMR17-31"/>
      <use transform="translate(540.520366 0)scale(0.996264)" xlink:href="#CMR17-29"/>
     </g>
    </g>
    <g id="text_15">
     <!-- $\times\mathdefault{10^{21}}\mathdefault{}$ -->
     <g transform="translate(309.476173 197.878649)scale(0.12 -0.12)">
      <use transform="scale(0.996264)" xlink:href="#CMSY10-2"/>
      <use transform="translate(77.487468 0)scale(0.996264)" xlink:href="#CMR17-31"/>
      <use transform="translate(123.177945 0)scale(0.996264)" xlink:href="#CMR17-30"/>
      <use transform="translate(168.868422 36.153639)scale(0.697382)" xlink:href="#CMR17-32"/>
      <use transform="translate(200.851604 36.153639)scale(0.697382)" xlink:href="#CMR17-31"/>
     </g>
    </g>
   </g>
   <g id="matplotlib.axis_4">
    <g id="ytick_4">
     <g id="line2d_9">
      <g>
       <use style="stroke:#000000;stroke-width:0.8;" x="203.318018" xlink:href="#mb316c2ee6a" y="168.949694"/>
      </g>
     </g>
    </g>
    <g id="ytick_5">
     <g id="line2d_10">
      <g>
       <use style="stroke:#000000;stroke-width:0.8;" x="203.318018" xlink:href="#mb316c2ee6a" y="98.936159"/>
      </g>
     </g>
    </g>
    <g id="ytick_6">
     <g id="line2d_11">
      <g>
       <use style="stroke:#000000;stroke-width:0.8;" x="203.318018" xlink:href="#mb316c2ee6a" y="28.922625"/>
      </g>
     </g>
    </g>
   </g>
   <g id="line2d_12">
    <path clip-path="url(#pa357c60378)" d="M 203.318018 36.747867 
L 221.147444 47.518357 
L 230.698922 54.461295 
L 240.2504 62.72101 
L 252.985705 71.339564 
L 268.904835 81.299782 
L 281.640139 89.187313 
L 294.375444 95.21615 
L 311.249722 103.958627 
L 328.124 107.945584 
L 338.949009 110.842469 
" style="fill:none;stroke:#1f77b4;stroke-linecap:square;stroke-width:1.5;"/>
    <g clip-path="url(#pa357c60378)">
     <use style="fill:#1f77b4;stroke:#1f77b4;" x="203.318018" xlink:href="#mbc53953a11" y="36.747867"/>
     <use style="fill:#1f77b4;stroke:#1f77b4;" x="221.147444" xlink:href="#mbc53953a11" y="47.518357"/>
     <use style="fill:#1f77b4;stroke:#1f77b4;" x="230.698922" xlink:href="#mbc53953a11" y="54.461295"/>
     <use style="fill:#1f77b4;stroke:#1f77b4;" x="240.2504" xlink:href="#mbc53953a11" y="62.72101"/>
     <use style="fill:#1f77b4;stroke:#1f77b4;" x="252.985705" xlink:href="#mbc53953a11" y="71.339564"/>
     <use style="fill:#1f77b4;stroke:#1f77b4;" x="268.904835" xlink:href="#mbc53953a11" y="81.299782"/>
     <use style="fill:#1f77b4;stroke:#1f77b4;" x="281.640139" xlink:href="#mbc53953a11" y="89.187313"/>
     <use style="fill:#1f77b4;stroke:#1f77b4;" x="294.375444" xlink:href="#mbc53953a11" y="95.21615"/>
     <use style="fill:#1f77b4;stroke:#1f77b4;" x="311.249722" xlink:href="#mbc53953a11" y="103.958627"/>
     <use style="fill:#1f77b4;stroke:#1f77b4;" x="328.124" xlink:href="#mbc53953a11" y="107.945584"/>
     <use style="fill:#1f77b4;stroke:#1f77b4;" x="338.949009" xlink:href="#mbc53953a11" y="110.842469"/>
    </g>
   </g>
   <g id="patch_8">
    <path d="M 203.318018 168.949694 
L 203.318018 28.922625 
" style="fill:none;stroke:#000000;stroke-linecap:square;stroke-linejoin:miter;stroke-width:0.8;"/>
   </g>
   <g id="patch_9">
    <path d="M 338.949009 168.949694 
L 338.949009 28.922625 
" style="fill:none;stroke:#000000;stroke-linecap:square;stroke-linejoin:miter;stroke-width:0.8;"/>
   </g>
   <g id="patch_10">
    <path d="M 203.318018 168.949694 
L 338.949009 168.949694 
" style="fill:none;stroke:#000000;stroke-linecap:square;stroke-linejoin:miter;stroke-width:0.8;"/>
   </g>
   <g id="patch_11">
    <path d="M 203.318018 28.922625 
L 338.949009 28.922625 
" style="fill:none;stroke:#000000;stroke-linecap:square;stroke-linejoin:miter;stroke-width:0.8;"/>
   </g>
   <g id="text_16">
    <!-- Ions -->
    <g style="fill:#ffffff;" transform="translate(284.823965 112.938866)scale(0.12 -0.12)">
     <use transform="scale(0.996264)" xlink:href="#CMR17-49"/>
     <use transform="translate(32.638409 0)scale(0.996264)" xlink:href="#CMR17-6f"/>
     <use transform="translate(78.328886 0)scale(0.996264)" xlink:href="#CMR17-6e"/>
     <use transform="translate(129.224256 0)scale(0.996264)" xlink:href="#CMR17-73"/>
    </g>
   </g>
   <g id="text_17">
    <!-- Atoms -->
    <g style="fill:#ffffff;" transform="translate(297.55927 98.936159)scale(0.12 -0.12)">
     <use transform="scale(0.996264)" xlink:href="#CMR17-41"/>
     <use transform="translate(66.469976 0)scale(0.996264)" xlink:href="#CMR17-74"/>
     <use transform="translate(101.750744 0)scale(0.996264)" xlink:href="#CMR17-6f"/>
     <use transform="translate(147.441221 0)scale(0.996264)" xlink:href="#CMR17-6d"/>
     <use transform="translate(224.360811 0)scale(0.996264)" xlink:href="#CMR17-73"/>
    </g>
   </g>
   <g id="text_18">
    <!-- OSP -->
    <g style="fill:#1f77b4;" transform="translate(256.990049 22.922625)scale(0.144 -0.144)">
     <defs>
      <path d="M 4307 2135 
C 4307 3437 3366 4416 2304 4416 
C 1216 4416 294 3424 294 2135 
C 294 845 1229 -128 2298 -128 
C 3392 -128 4307 864 4307 2135 
z
M 2304 -13 
C 1574 -13 781 711 781 2217 
C 781 3716 1651 4301 2298 4301 
C 2976 4301 3821 3698 3821 2217 
C 3821 686 3008 -13 2304 -13 
z
" id="CMR17-4f" transform="scale(0.015625)"/>
     </defs>
     <use transform="scale(0.996264)" xlink:href="#CMR17-4f"/>
     <use transform="translate(71.714788 0)scale(0.996264)" xlink:href="#CMR17-53"/>
     <use transform="translate(122.610158 0)scale(0.996264)" xlink:href="#CMR17-50"/>
    </g>
   </g>
  </g>
  <g id="axes_3">
   <g id="patch_12">
    <path d="M 355.409009 168.949694 
L 491.04 168.949694 
L 491.04 28.922625 
L 355.409009 28.922625 
z
" style="fill:#ffffff;"/>
   </g>
   <g id="PolyCollection_5">
    <path clip-path="url(#p25667ce073)" d="M 355.409009 167.057701 
L 355.409009 168.949694 
L 373.238435 168.949694 
L 382.789913 168.949694 
L 392.341391 168.949694 
L 405.076696 168.949694 
L 420.995826 168.949694 
L 433.731131 168.949694 
L 446.466435 168.949694 
L 463.340713 168.949694 
L 480.214991 168.949694 
L 491.04 168.949694 
L 491.04 166.209512 
L 491.04 166.209512 
L 480.214991 166.350173 
L 463.340713 165.656344 
L 446.466435 166.201947 
L 433.731131 166.459886 
L 420.995826 166.204365 
L 405.076696 165.033591 
L 392.341391 165.315313 
L 382.789913 164.523322 
L 373.238435 162.914674 
L 355.409009 167.057701 
z
" style="fill:#1f77b4;fill-opacity:0.3;"/>
   </g>
   <g id="PolyCollection_6">
    <path clip-path="url(#p25667ce073)" d="M 355.409009 167.057701 
L 355.409009 28.922625 
L 373.238435 28.922625 
L 382.789913 28.922625 
L 392.341391 28.922625 
L 405.076696 28.922625 
L 420.995826 28.922625 
L 433.731131 28.922625 
L 446.466435 28.922625 
L 463.340713 28.922625 
L 480.214991 28.922625 
L 491.04 28.922625 
L 491.04 166.209512 
L 491.04 166.209512 
L 480.214991 166.350173 
L 463.340713 165.656344 
L 446.466435 166.201947 
L 433.731131 166.459886 
L 420.995826 166.204365 
L 405.076696 165.033591 
L 392.341391 165.315313 
L 382.789913 164.523322 
L 373.238435 162.914674 
L 355.409009 167.057701 
z
" style="fill:#ff7f0e;fill-opacity:0.3;"/>
   </g>
   <g id="matplotlib.axis_5">
    <g id="xtick_5">
     <g id="line2d_13">
      <g>
       <use style="stroke:#000000;stroke-width:0.8;" x="405.076696" xlink:href="#ma4cbfb8c09" y="168.949694"/>
      </g>
     </g>
     <g id="text_19">
      <!-- $\mathdefault{2}$ -->
      <g transform="translate(402.150201 184.251873)scale(0.12 -0.12)">
       <use transform="scale(0.996264)" xlink:href="#CMR17-32"/>
      </g>
     </g>
    </g>
    <g id="xtick_6">
     <g id="line2d_14">
      <g>
       <use style="stroke:#000000;stroke-width:0.8;" x="468.753217" xlink:href="#ma4cbfb8c09" y="168.949694"/>
      </g>
     </g>
     <g id="text_20">
      <!-- $\mathdefault{4}$ -->
      <g transform="translate(465.826722 184.251873)scale(0.12 -0.12)">
       <use transform="scale(0.996264)" xlink:href="#CMR17-34"/>
      </g>
     </g>
    </g>
    <g id="text_21">
     <!-- Puff rate (s$^{-1}$) -->
     <g transform="translate(386.073788 200.051208)scale(0.12 -0.12)">
      <use transform="scale(0.996264)" xlink:href="#CMR17-50"/>
      <use transform="translate(62.586301 0)scale(0.996264)" xlink:href="#CMR17-75"/>
      <use transform="translate(113.48167 0)scale(0.996264)" xlink:href="#CMR17-b"/>
      <use transform="translate(195.902314 0)scale(0.996264)" xlink:href="#CMR17-72"/>
      <use transform="translate(231.183082 0)scale(0.996264)" xlink:href="#CMR17-61"/>
      <use transform="translate(276.873559 0)scale(0.996264)" xlink:href="#CMR17-74"/>
      <use transform="translate(312.154327 0)scale(0.996264)" xlink:href="#CMR17-65"/>
      <use transform="translate(382.715953 0)scale(0.996264)" xlink:href="#CMR17-28"/>
      <use transform="translate(417.996721 0)scale(0.996264)" xlink:href="#CMR17-73"/>
      <use transform="translate(453.798059 36.153639)scale(0.697382)" xlink:href="#CMSY10-0"/>
      <use transform="translate(508.039052 36.153639)scale(0.697382)" xlink:href="#CMR17-31"/>
      <use transform="translate(540.520366 0)scale(0.996264)" xlink:href="#CMR17-29"/>
     </g>
    </g>
    <g id="text_22">
     <!-- $\times\mathdefault{10^{21}}\mathdefault{}$ -->
     <g transform="translate(461.567164 197.878649)scale(0.12 -0.12)">
      <use transform="scale(0.996264)" xlink:href="#CMSY10-2"/>
      <use transform="translate(77.487468 0)scale(0.996264)" xlink:href="#CMR17-31"/>
      <use transform="translate(123.177945 0)scale(0.996264)" xlink:href="#CMR17-30"/>
      <use transform="translate(168.868422 36.153639)scale(0.697382)" xlink:href="#CMR17-32"/>
      <use transform="translate(200.851604 36.153639)scale(0.697382)" xlink:href="#CMR17-31"/>
     </g>
    </g>
   </g>
   <g id="matplotlib.axis_6">
    <g id="ytick_7">
     <g id="line2d_15">
      <g>
       <use style="stroke:#000000;stroke-width:0.8;" x="355.409009" xlink:href="#mb316c2ee6a" y="168.949694"/>
      </g>
     </g>
    </g>
    <g id="ytick_8">
     <g id="line2d_16">
      <g>
       <use style="stroke:#000000;stroke-width:0.8;" x="355.409009" xlink:href="#mb316c2ee6a" y="98.936159"/>
      </g>
     </g>
    </g>
    <g id="ytick_9">
     <g id="line2d_17">
      <g>
       <use style="stroke:#000000;stroke-width:0.8;" x="355.409009" xlink:href="#mb316c2ee6a" y="28.922625"/>
      </g>
     </g>
    </g>
   </g>
   <g id="line2d_18">
    <path clip-path="url(#p25667ce073)" d="M 355.409009 167.057701 
L 373.238435 162.914674 
L 382.789913 164.523322 
L 392.341391 165.315313 
L 405.076696 165.033591 
L 420.995826 166.204365 
L 433.731131 166.459886 
L 446.466435 166.201947 
L 463.340713 165.656344 
L 480.214991 166.350173 
L 491.04 166.209512 
" style="fill:none;stroke:#ff7f0e;stroke-linecap:square;stroke-width:1.5;"/>
    <defs>
     <path d="M -3 0 
L 3 0 
M 0 3 
L 0 -3 
" id="md3cd49aa89" style="stroke:#ff7f0e;"/>
    </defs>
    <g clip-path="url(#p25667ce073)">
     <use style="fill:#ff7f0e;stroke:#ff7f0e;" x="355.409009" xlink:href="#md3cd49aa89" y="167.057701"/>
     <use style="fill:#ff7f0e;stroke:#ff7f0e;" x="373.238435" xlink:href="#md3cd49aa89" y="162.914674"/>
     <use style="fill:#ff7f0e;stroke:#ff7f0e;" x="382.789913" xlink:href="#md3cd49aa89" y="164.523322"/>
     <use style="fill:#ff7f0e;stroke:#ff7f0e;" x="392.341391" xlink:href="#md3cd49aa89" y="165.315313"/>
     <use style="fill:#ff7f0e;stroke:#ff7f0e;" x="405.076696" xlink:href="#md3cd49aa89" y="165.033591"/>
     <use style="fill:#ff7f0e;stroke:#ff7f0e;" x="420.995826" xlink:href="#md3cd49aa89" y="166.204365"/>
     <use style="fill:#ff7f0e;stroke:#ff7f0e;" x="433.731131" xlink:href="#md3cd49aa89" y="166.459886"/>
     <use style="fill:#ff7f0e;stroke:#ff7f0e;" x="446.466435" xlink:href="#md3cd49aa89" y="166.201947"/>
     <use style="fill:#ff7f0e;stroke:#ff7f0e;" x="463.340713" xlink:href="#md3cd49aa89" y="165.656344"/>
     <use style="fill:#ff7f0e;stroke:#ff7f0e;" x="480.214991" xlink:href="#md3cd49aa89" y="166.350173"/>
     <use style="fill:#ff7f0e;stroke:#ff7f0e;" x="491.04" xlink:href="#md3cd49aa89" y="166.209512"/>
    </g>
   </g>
   <g id="patch_13">
    <path d="M 355.409009 168.949694 
L 355.409009 28.922625 
" style="fill:none;stroke:#000000;stroke-linecap:square;stroke-linejoin:miter;stroke-width:0.8;"/>
   </g>
   <g id="patch_14">
    <path d="M 491.04 168.949694 
L 491.04 28.922625 
" style="fill:none;stroke:#000000;stroke-linecap:square;stroke-linejoin:miter;stroke-width:0.8;"/>
   </g>
   <g id="patch_15">
    <path d="M 355.409009 168.949694 
L 491.04 168.949694 
" style="fill:none;stroke:#000000;stroke-linecap:square;stroke-linejoin:miter;stroke-width:0.8;"/>
   </g>
   <g id="patch_16">
    <path d="M 355.409009 28.922625 
L 491.04 28.922625 
" style="fill:none;stroke:#000000;stroke-linecap:square;stroke-linejoin:miter;stroke-width:0.8;"/>
   </g>
   <g id="text_23">
    <!-- Atoms -->
    <g style="fill:#ffffff;" transform="translate(373.238435 98.936159)scale(0.12 -0.12)">
     <use transform="scale(0.996264)" xlink:href="#CMR17-41"/>
     <use transform="translate(66.469976 0)scale(0.996264)" xlink:href="#CMR17-74"/>
     <use transform="translate(101.750744 0)scale(0.996264)" xlink:href="#CMR17-6f"/>
     <use transform="translate(147.441221 0)scale(0.996264)" xlink:href="#CMR17-6d"/>
     <use transform="translate(224.360811 0)scale(0.996264)" xlink:href="#CMR17-73"/>
    </g>
   </g>
   <g id="text_24">
    <!-- Private zone -->
    <g style="fill:#ff7f0e;" transform="translate(385.083848 22.922625)scale(0.144 -0.144)">
     <defs>
      <path d="M 2502 2163 
C 2560 2304 2662 2560 3034 2560 
L 3034 2726 
C 2912 2726 2752 2726 2630 2726 
C 2496 2726 2285 2726 2157 2732 
L 2157 2566 
C 2317 2553 2406 2477 2406 2311 
C 2406 2253 2406 2240 2368 2151 
L 1664 377 
L 902 2286 
C 864 2369 864 2381 864 2407 
C 864 2560 1075 2560 1171 2560 
L 1171 2732 
C 1018 2726 736 2726 576 2726 
C 403 2726 205 2726 64 2732 
L 64 2560 
C 307 2560 442 2560 518 2362 
L 1446 44 
C 1485 -51 1491 -64 1549 -64 
C 1606 -64 1613 -51 1651 44 
L 2502 2163 
z
" id="CMR17-76" transform="scale(0.015625)"/>
      <path d="M 2310 2605 
C 2362 2670 2362 2682 2362 2695 
C 2362 2752 2336 2752 2221 2752 
L 275 2752 
L 211 1760 
L 326 1760 
C 371 2381 442 2650 1178 2650 
L 1958 2650 
L 128 96 
C 128 0 134 0 269 0 
L 2291 0 
L 2381 1152 
L 2266 1152 
C 2214 442 2131 115 1350 115 
L 531 115 
L 2310 2605 
z
" id="CMR17-7a" transform="scale(0.015625)"/>
     </defs>
     <use transform="scale(0.996264)" xlink:href="#CMR17-50"/>
     <use transform="translate(62.586301 0)scale(0.996264)" xlink:href="#CMR17-72"/>
     <use transform="translate(97.867068 0)scale(0.996264)" xlink:href="#CMR17-69"/>
     <use transform="translate(122.738127 0)scale(0.996264)" xlink:href="#CMR17-76"/>
     <use transform="translate(165.826226 0)scale(0.996264)" xlink:href="#CMR17-61"/>
     <use transform="translate(211.516703 0)scale(0.996264)" xlink:href="#CMR17-74"/>
     <use transform="translate(246.797471 0)scale(0.996264)" xlink:href="#CMR17-65"/>
     <use transform="translate(317.359098 0)scale(0.996264)" xlink:href="#CMR17-7a"/>
     <use transform="translate(357.844758 0)scale(0.996264)" xlink:href="#CMR17-6f"/>
     <use transform="translate(403.535235 0)scale(0.996264)" xlink:href="#CMR17-6e"/>
     <use transform="translate(454.430605 0)scale(0.996264)" xlink:href="#CMR17-65"/>
    </g>
   </g>
  </g>
 </g>
 <defs>
  <clipPath id="paa66242452">
   <rect height="140.027069" width="135.630991" x="51.227027" y="28.922625"/>
  </clipPath>
  <clipPath id="pa357c60378">
   <rect height="140.027069" width="135.630991" x="203.318018" y="28.922625"/>
  </clipPath>
  <clipPath id="p25667ce073">
   <rect height="140.027069" width="135.630991" x="355.409009" y="28.922625"/>
  </clipPath>
 </defs>
</svg>
